<svg xmlns="http://www.w3.org/2000/svg" viewBox="0 0 225 395"><title>standing — reference contour draft</title><path fill="#242424" fill-rule="evenodd" d="M69,374 L69,379 L73,383 L74,383 L75,384 L76,384 L79,386 L81,386 L84,388 L86,388 L87,387 L88,387 L90,385 L90,381 L92,379 L92,377 L89,378 L86,381 L81,381 L78,379 L76,379 L71,374 L71,373 L70,374 Z M97,343 L94,343 L93,344 L93,346 L95,349 L95,350 L93,353 L93,354 L94,355 L95,355 L95,354 L97,351 Z M85,344 L84,344 L83,343 L81,346 L80,345 L80,342 L79,342 L79,343 L77,345 L77,347 L76,348 L76,350 L78,352 L78,350 L79,349 L79,348 L80,347 L83,348 L83,347 L85,345 Z M224,341 L223,342 L221,342 L220,343 L219,343 L215,347 L215,349 L214,350 L214,356 L215,357 L215,359 L220,364 L221,364 L222,365 L224,365 Z M222,348 L224,350 L224,357 L223,358 L221,356 L221,349 Z M149,339 L147,339 L147,341 L148,342 L149,341 Z M224,336 L223,335 L221,335 L220,336 L218,336 L217,337 L215,337 L214,338 L211,338 L210,339 L203,339 L202,340 L200,340 L198,342 L198,343 L199,344 L199,349 L198,350 L199,353 L200,354 L210,354 L211,353 L210,352 L206,352 L205,351 L207,349 L208,350 L211,350 L211,347 L204,347 L203,346 L202,346 L201,345 L201,344 L202,343 L207,343 L208,342 L210,342 L213,340 L217,340 L218,339 L220,339 L221,338 L222,338 Z M88,269 L88,271 L89,272 L90,271 L92,271 L95,273 L97,273 L97,271 L95,269 L94,269 L93,268 L90,268 L89,269 Z M206,204 L205,204 L205,205 L204,206 L203,206 L203,207 L202,208 L204,210 L204,208 L206,206 Z M130,197 L129,197 L127,199 L127,200 L125,203 L125,210 L125,203 L126,202 L126,201 Z M83,197 L84,198 L84,200 L85,200 L86,201 L88,201 L88,200 L86,197 Z M149,192 L148,193 L148,194 L149,195 L150,195 L150,192 Z M115,190 L114,191 L114,199 L110,203 L109,203 L108,204 L98,204 L97,205 L96,205 L96,206 L97,207 L109,207 L112,205 L113,206 L113,210 L112,211 L112,213 L111,214 L111,216 L110,217 L110,219 L109,220 L109,223 L108,224 L108,229 L107,230 L107,233 L106,234 L106,245 L105,246 L105,253 L104,254 L104,262 L103,263 L103,269 L101,272 L101,274 L100,275 L100,277 L99,278 L99,280 L100,281 L100,292 L101,293 L101,298 L102,299 L102,301 L101,302 L101,306 L100,307 L100,309 L99,310 L99,311 L98,312 L98,314 L96,317 L97,318 L97,319 L99,319 L99,317 L100,316 L100,315 L102,312 L102,310 L104,307 L104,293 L102,290 L102,277 L104,275 L104,272 L105,271 L105,269 L106,268 L106,260 L107,259 L107,247 L108,246 L108,241 L109,240 L109,232 L110,231 L110,229 L111,228 L111,224 L112,223 L112,220 L114,218 L114,216 L115,215 L116,216 L116,220 L117,221 L117,223 L118,224 L118,228 L120,231 L120,235 L121,236 L121,237 L122,238 L122,240 L123,241 L123,244 L124,245 L124,251 L125,252 L125,256 L126,257 L126,260 L127,261 L127,263 L128,264 L128,269 L129,270 L129,272 L130,273 L130,275 L131,276 L131,298 L132,299 L132,304 L133,305 L133,307 L135,310 L135,312 L136,313 L136,316 L137,317 L137,324 L138,325 L138,329 L139,330 L139,333 L140,334 L140,339 L141,340 L143,340 L143,337 L142,336 L142,333 L141,332 L141,329 L140,328 L140,321 L138,318 L138,309 L136,307 L136,305 L135,304 L135,301 L134,300 L134,296 L133,295 L134,294 L133,293 L133,291 L134,290 L134,284 L135,283 L135,270 L136,269 L136,266 L135,265 L134,265 L134,270 L133,271 L132,271 L131,270 L131,268 L130,267 L130,264 L129,263 L129,260 L128,259 L128,254 L127,253 L127,251 L126,250 L126,243 L125,242 L125,240 L124,239 L124,236 L123,235 L123,233 L121,230 L121,227 L119,224 L119,218 L118,217 L118,205 L119,204 L120,205 L121,205 L122,204 L122,203 L119,200 L119,199 L118,198 L118,196 L117,195 L117,191 L116,190 Z M79,190 L79,193 L81,195 L82,194 L82,191 L81,190 Z M77,173 L76,174 L75,174 L75,175 L74,176 L74,179 L73,180 L73,182 L72,183 L72,192 L71,193 L71,194 L72,195 L72,226 L71,227 L71,229 L72,230 L72,234 L71,235 L72,236 L72,242 L73,243 L73,247 L74,248 L74,251 L75,252 L75,254 L77,257 L77,277 L76,278 L76,281 L75,282 L75,289 L74,290 L74,313 L75,314 L75,317 L76,318 L76,319 L78,321 L78,315 L77,314 L77,310 L76,309 L76,297 L77,296 L77,287 L78,286 L78,282 L80,279 L80,277 L82,275 L82,272 L83,271 L83,266 L81,268 L79,265 L80,264 L80,257 L79,256 L79,254 L77,251 L77,248 L75,246 L75,241 L74,240 L74,237 L73,236 L73,224 L74,223 L74,215 L73,214 L73,193 L74,192 L74,189 L75,188 L75,182 L76,181 L76,180 L77,179 L77,177 L78,176 L78,173 Z M159,152 L159,156 L160,157 L160,159 L161,160 L161,162 L162,163 L162,164 L163,165 L163,166 L164,167 L165,170 L169,174 L169,175 L171,177 L171,178 L173,180 L173,181 L176,184 L176,185 L178,187 L178,188 L179,189 L179,190 L180,191 L181,194 L183,196 L183,198 L184,199 L184,201 L185,202 L185,206 L186,207 L186,210 L188,212 L188,214 L189,215 L189,216 L191,219 L191,221 L194,224 L195,224 L198,226 L201,225 L201,224 L202,223 L205,225 L212,225 L213,224 L215,224 L218,221 L218,220 L216,217 L216,215 L215,214 L217,211 L217,209 L216,208 L216,206 L215,205 L215,203 L211,199 L211,198 L209,196 L209,195 L208,194 L207,194 L206,193 L205,193 L204,192 L203,192 L202,191 L199,190 L198,189 L198,188 L196,186 L196,182 L194,180 L194,178 L193,177 L193,176 L191,173 L191,171 L189,169 L189,166 L187,163 L187,156 L185,153 L185,150 L183,150 L183,154 L184,155 L184,157 L185,158 L185,163 L186,164 L186,168 L188,170 L188,172 L189,173 L189,174 L191,177 L191,179 L193,182 L193,184 L194,185 L194,187 L196,189 L196,191 L197,192 L198,192 L200,194 L201,194 L202,195 L204,195 L206,197 L207,197 L208,198 L208,200 L209,201 L209,206 L210,207 L210,210 L212,212 L212,214 L211,215 L210,215 L209,214 L208,211 L206,211 L206,213 L207,214 L207,215 L210,218 L210,219 L209,220 L208,220 L206,218 L206,217 L204,215 L204,214 L202,212 L201,212 L200,211 L200,210 L199,210 L195,214 L195,218 L194,219 L193,218 L193,216 L189,211 L189,208 L187,206 L187,201 L186,200 L186,198 L184,195 L184,193 L183,192 L183,191 L182,190 L181,187 L179,185 L179,183 L176,180 L176,179 L174,177 L174,176 L170,172 L170,171 L167,168 L167,166 L165,164 L165,163 L164,162 L164,160 L162,158 L162,156 L161,155 L160,152 Z M209,220 L210,219 L211,219 L212,220 L211,221 L210,221 Z M201,217 L202,216 L203,217 L202,218 Z M211,215 L212,214 L213,215 L212,216 Z M199,213 L200,212 L201,213 L200,214 Z M212,204 L214,206 L214,207 L215,208 L215,209 L214,210 L213,210 L211,208 L211,205 Z M114,142 L113,142 L112,143 L112,149 L113,150 L113,153 L114,152 Z M164,131 L163,132 L162,132 L159,135 L158,138 L158,137 Z M153,104 L152,104 L150,106 L149,109 L147,111 L147,114 L146,115 L146,119 L145,120 L145,123 L144,124 L144,134 L143,135 L143,153 L144,154 L144,156 L146,158 L146,161 L147,162 L147,164 L148,165 L148,169 L149,170 L149,174 L151,176 L151,180 L152,181 L152,187 L153,188 L153,191 L154,192 L154,207 L155,208 L155,219 L156,220 L156,223 L155,224 L155,226 L156,227 L156,232 L155,233 L155,238 L154,239 L154,247 L155,248 L155,261 L154,262 L155,263 L155,264 L151,268 L151,269 L152,270 L152,272 L154,275 L154,278 L155,279 L155,281 L156,282 L156,284 L157,285 L157,288 L159,291 L159,298 L160,299 L159,300 L159,307 L158,308 L158,314 L157,315 L157,334 L156,335 L156,336 L157,337 L156,338 L156,339 L157,340 L157,343 L158,344 L157,345 L156,345 L155,344 L155,343 L154,343 L153,342 L152,343 L152,345 L156,349 L158,346 L159,347 L159,351 L160,352 L160,365 L161,366 L161,368 L162,369 L162,373 L161,374 L161,375 L160,376 L159,376 L157,378 L156,378 L155,379 L153,379 L152,380 L148,380 L146,378 L146,377 L145,376 L145,370 L144,369 L142,369 L142,376 L143,377 L143,378 L145,381 L145,383 L146,384 L146,385 L148,387 L153,387 L159,381 L160,381 L164,377 L164,376 L165,375 L165,370 L164,369 L164,367 L163,366 L163,362 L162,361 L162,349 L160,346 L160,342 L159,341 L159,339 L158,338 L158,336 L159,335 L159,332 L160,331 L160,312 L161,311 L161,307 L162,306 L162,292 L160,289 L160,286 L158,283 L158,280 L157,279 L157,235 L158,234 L158,217 L157,216 L157,205 L156,204 L156,198 L157,197 L157,194 L155,191 L155,183 L153,181 L153,174 L152,173 L152,171 L150,168 L150,163 L148,161 L148,156 L147,155 L147,153 L145,150 L145,135 L146,134 L146,131 L147,130 L147,127 L148,126 L150,128 L150,130 L151,131 L151,133 L152,134 L152,136 L153,137 L153,138 L154,139 L155,139 L155,135 L153,132 L153,130 L152,129 L152,126 L150,124 L150,112 L151,111 L151,110 L153,107 Z M113,100 L112,101 L112,110 L113,111 L112,112 L114,114 L115,113 L116,113 L114,110 L114,100 Z M104,89 L103,89 L103,91 L101,93 L101,97 L100,98 L99,101 L96,104 L94,104 L92,106 L93,107 L95,107 L97,105 L97,104 L98,103 L101,103 L101,102 L102,101 L102,97 L104,95 Z M115,71 L115,72 L114,73 L114,76 L115,77 L116,76 L116,72 Z M128,10 L127,10 L126,9 L124,9 L123,8 L121,8 L120,7 L112,7 L111,8 L109,8 L108,9 L105,9 L104,10 L103,10 L98,15 L98,16 L96,18 L96,19 L95,20 L95,32 L93,34 L93,43 L94,44 L94,45 L96,47 L96,48 L97,49 L98,49 L101,52 L101,54 L100,55 L100,61 L96,65 L95,65 L94,66 L93,66 L90,68 L88,68 L87,69 L86,69 L84,71 L83,71 L80,73 L78,73 L77,74 L73,74 L72,75 L71,75 L65,81 L65,82 L62,85 L62,88 L61,89 L61,91 L60,92 L60,96 L59,97 L59,99 L60,100 L60,104 L59,105 L59,109 L58,110 L58,112 L57,113 L57,115 L56,116 L56,120 L55,121 L55,133 L54,134 L54,137 L53,138 L53,139 L51,142 L51,144 L50,145 L50,146 L48,148 L48,150 L47,151 L47,152 L45,154 L45,156 L43,158 L43,160 L42,161 L42,163 L41,164 L41,166 L39,169 L39,171 L38,172 L38,174 L37,175 L37,176 L36,177 L35,180 L33,182 L33,183 L32,184 L31,187 L27,191 L21,193 L16,198 L16,199 L14,201 L14,202 L11,205 L11,206 L9,208 L9,212 L11,214 L6,218 L6,220 L7,221 L7,222 L8,222 L9,223 L9,224 L10,224 L13,227 L26,227 L28,225 L29,225 L32,222 L32,219 L33,218 L33,217 L38,212 L39,209 L41,207 L41,205 L42,204 L42,203 L44,200 L44,198 L46,196 L46,195 L48,193 L48,192 L56,184 L56,183 L58,181 L59,178 L61,176 L61,175 L62,174 L62,173 L63,172 L63,171 L64,170 L64,169 L65,168 L65,167 L66,166 L66,165 L67,164 L68,161 L70,159 L70,157 L71,156 L71,154 L72,153 L72,149 L73,148 L73,146 L75,144 L75,142 L76,141 L76,139 L77,138 L77,134 L79,131 L80,131 L82,134 L81,135 L81,142 L80,143 L80,148 L81,149 L78,152 L77,152 L75,154 L75,155 L73,158 L73,165 L73,159 L74,158 L74,156 L83,147 L83,143 L84,142 L84,133 L82,130 L82,127 L80,125 L80,119 L79,118 L79,116 L78,115 L78,107 L77,106 L77,104 L74,101 L73,102 L73,105 L75,108 L75,113 L76,114 L76,118 L77,119 L77,128 L75,131 L75,135 L74,136 L74,138 L73,139 L73,141 L72,142 L72,143 L67,148 L67,149 L63,153 L63,156 L66,155 L67,156 L67,158 L65,160 L65,161 L64,162 L64,163 L62,166 L62,168 L60,170 L60,171 L59,172 L58,175 L56,177 L56,178 L54,180 L54,181 L48,187 L48,188 L45,191 L45,192 L43,194 L43,195 L42,196 L42,197 L41,198 L41,199 L40,200 L40,201 L38,204 L38,206 L37,207 L37,208 L33,212 L33,213 L31,215 L30,215 L28,212 L26,212 L25,211 L21,211 L18,214 L17,213 L17,210 L18,209 L19,209 L19,208 L21,205 L21,203 L20,202 L19,203 L18,202 L19,199 L24,195 L26,195 L27,194 L28,194 L34,188 L34,186 L38,181 L38,180 L39,179 L39,178 L41,175 L41,172 L43,169 L43,167 L44,166 L44,163 L46,161 L46,158 L48,156 L48,155 L49,154 L49,152 L51,150 L51,149 L53,146 L53,144 L55,141 L55,139 L56,138 L56,135 L58,132 L58,118 L60,115 L60,111 L61,110 L61,98 L63,95 L63,89 L65,87 L66,84 L67,83 L68,83 L68,82 L72,78 L73,78 L74,77 L76,77 L77,76 L80,76 L81,75 L83,75 L84,74 L87,73 L89,71 L90,71 L93,69 L95,69 L97,67 L99,67 L100,66 L101,66 L101,65 L102,64 L102,49 L103,48 L104,48 L103,47 L103,45 L102,44 L102,38 L103,37 L103,35 L109,29 L107,31 L106,31 L103,34 L103,35 L102,36 L102,45 L101,46 L100,46 L95,41 L95,40 L97,38 L98,39 L99,38 L99,36 L97,34 L97,22 L99,20 L99,19 L103,14 L104,14 L105,13 L106,13 L109,11 L111,11 L112,10 L116,10 L117,11 L122,11 L123,12 L126,13 L128,15 L129,15 L132,18 L132,19 L134,22 L134,24 L135,25 L135,30 L134,31 L134,34 L133,35 L133,39 L134,40 L134,42 L132,45 L131,44 L130,44 L130,45 L128,48 L128,53 L127,54 L127,60 L128,61 L128,63 L130,66 L131,66 L132,67 L133,67 L134,68 L135,68 L138,70 L140,70 L141,71 L142,71 L143,72 L144,72 L145,73 L146,73 L147,74 L148,74 L151,76 L153,76 L154,77 L157,78 L163,84 L163,85 L167,90 L167,92 L168,93 L168,96 L169,97 L169,110 L170,111 L170,113 L171,114 L171,117 L172,118 L172,120 L173,121 L173,127 L174,128 L175,128 L176,127 L176,123 L175,122 L175,118 L174,117 L174,114 L172,112 L172,106 L170,103 L170,91 L169,90 L169,89 L168,88 L167,85 L165,83 L165,82 L158,75 L156,75 L155,74 L153,74 L151,72 L148,71 L146,69 L144,69 L143,68 L141,68 L138,66 L136,66 L135,65 L134,65 L129,60 L129,51 L131,49 L133,49 L134,48 L134,47 L136,44 L136,42 L138,39 L138,35 L136,33 L136,29 L137,28 L137,24 L136,23 L136,18 L135,17 L135,16 L131,12 L130,12 Z M14,220 L15,219 L16,220 L15,221 Z M24,217 L24,216 L25,215 L26,215 L27,216 L25,218 Z M16,214 L17,213 L18,214 L17,215 Z M14,206 L15,205 L16,206 L16,207 L15,208 L14,207 Z"/></svg>