<?xml version="1.0" encoding="UTF-8"?>
<svg xmlns="http://www.w3.org/2000/svg" width="519" height="719" viewBox="0 0 519 719" role="img" aria-label="Seated Wheelchair Side View">
  <title>Seated Wheelchair Side View</title>
  <path d="M 415 26 L 403 20 L 395 19 L 394 18 L 374 18 L 373 19 L 362 20 L 355 22 L 342 29 L 334 39 L 331 47 L 330 54 L 326 64 L 326 74 L 328 77 L 328 80 L 318 98 L 318 102 L 321 105 L 327 107 L 327 114 L 329 116 L 329 120 L 332 124 L 332 133 L 334 137 L 341 141 L 356 140 L 359 143 L 363 159 L 363 164 L 354 184 L 339 208 L 331 227 L 331 231 L 330 232 L 331 263 L 330 264 L 330 272 L 329 273 L 329 292 L 328 293 L 329 294 L 326 296 L 304 303 L 283 312 L 258 320 L 236 324 L 223 328 L 217 328 L 216 329 L 196 328 L 184 333 L 176 341 L 172 349 L 171 355 L 160 359 L 153 366 L 149 373 L 146 385 L 146 397 L 143 405 L 137 432 L 135 436 L 135 440 L 127 469 L 127 473 L 120 499 L 116 520 L 109 541 L 104 551 L 98 558 L 79 568 L 48 579 L 39 580 L 38 581 L 28 581 L 23 584 L 21 588 L 22 594 L 25 597 L 19 599 L 19 610 L 18 611 L 18 616 L 19 617 L 50 619 L 51 620 L 71 621 L 72 622 L 83 622 L 84 623 L 95 623 L 96 624 L 120 625 L 121 626 L 146 627 L 147 609 L 143 609 L 137 607 L 142 603 L 145 596 L 144 567 L 148 551 L 158 522 L 167 503 L 167 501 L 189 464 L 194 446 L 195 434 L 196 433 L 198 435 L 202 435 L 203 436 L 233 436 L 234 437 L 216 456 L 202 478 L 194 496 L 189 512 L 189 516 L 186 527 L 186 533 L 185 534 L 185 561 L 186 562 L 187 575 L 194 600 L 206 625 L 220 645 L 239 664 L 248 671 L 262 680 L 278 688 L 307 697 L 318 698 L 319 699 L 329 699 L 330 700 L 343 700 L 344 699 L 363 698 L 383 693 L 386 691 L 394 689 L 421 675 L 437 663 L 452 648 L 465 631 L 478 607 L 481 597 L 483 594 L 483 591 L 487 579 L 489 560 L 490 559 L 490 537 L 489 536 L 488 522 L 482 499 L 475 484 L 475 482 L 467 468 L 451 447 L 429 427 L 432 424 L 435 416 L 435 410 L 436 409 L 438 389 L 439 388 L 439 383 L 440 382 L 441 371 L 444 358 L 444 352 L 445 351 L 445 346 L 449 329 L 449 323 L 451 317 L 453 300 L 455 294 L 456 283 L 457 282 L 461 255 L 462 254 L 463 240 L 464 239 L 464 229 L 465 228 L 465 218 L 466 217 L 466 205 L 467 204 L 467 195 L 468 194 L 468 184 L 469 183 L 470 160 L 472 157 L 481 157 L 488 159 L 495 159 L 499 156 L 500 150 L 496 145 L 487 144 L 486 143 L 479 143 L 478 142 L 462 143 L 455 149 L 451 164 L 450 178 L 449 179 L 448 193 L 447 194 L 447 201 L 446 202 L 446 210 L 444 212 L 443 211 L 443 203 L 440 192 L 435 182 L 421 160 L 415 140 L 415 132 L 414 131 L 415 114 L 429 89 L 432 79 L 432 71 L 433 70 L 433 61 L 432 60 L 432 53 L 430 45 L 423 33 Z
    M 93 604 L 94 603 L 98 604 L 97 605 Z
    M 21 613 L 22 612 L 22 602 L 23 601 L 28 601 L 29 602 L 40 602 L 41 603 L 49 603 L 50 604 L 61 604 L 62 605 L 73 605 L 74 606 L 85 606 L 86 607 L 97 607 L 98 608 L 143 611 L 144 612 L 144 617 L 142 624 L 135 624 L 134 623 L 97 621 L 96 620 L 86 620 L 85 619 L 75 619 L 74 618 L 64 618 L 63 617 L 51 617 L 50 616 L 42 616 L 41 615 L 29 615 Z
    M 44 590 L 41 591 L 38 594 L 37 598 L 33 597 L 32 594 L 38 589 L 43 589 Z
    M 25 593 L 25 587 L 28 584 L 31 585 L 30 587 L 34 586 L 40 586 L 41 587 L 33 590 L 31 592 L 31 596 L 30 597 Z
    M 198 428 L 198 422 L 201 419 L 255 419 L 256 420 L 239 432 L 203 433 L 200 432 Z
    M 328 404 L 357 405 L 358 406 L 363 406 L 376 409 L 391 414 L 411 424 L 432 439 L 447 454 L 463 476 L 475 502 L 481 526 L 481 533 L 482 534 L 482 561 L 481 562 L 481 570 L 477 587 L 473 599 L 464 618 L 447 642 L 426 662 L 406 675 L 380 686 L 359 690 L 358 691 L 349 691 L 348 692 L 327 692 L 326 691 L 317 691 L 316 690 L 298 687 L 281 681 L 265 673 L 246 660 L 225 639 L 210 617 L 204 605 L 196 582 L 194 567 L 193 566 L 193 558 L 192 557 L 193 529 L 194 528 L 197 510 L 200 504 L 201 498 L 213 474 L 232 449 L 246 436 L 257 428 L 279 416 L 302 408 L 318 406 L 319 405 L 327 405 Z
    M 322 417 L 321 418 L 315 418 L 314 419 L 301 421 L 284 427 L 270 434 L 254 445 L 233 466 L 221 484 L 216 494 L 209 513 L 207 526 L 206 527 L 205 547 L 204 548 L 206 570 L 212 592 L 222 614 L 229 625 L 239 637 L 258 654 L 270 662 L 284 669 L 301 675 L 314 678 L 319 678 L 320 679 L 332 679 L 333 680 L 354 679 L 355 678 L 370 676 L 377 673 L 383 672 L 404 662 L 421 650 L 440 631 L 453 612 L 460 598 L 465 584 L 468 571 L 469 554 L 470 553 L 469 531 L 468 530 L 468 525 L 464 509 L 454 486 L 440 465 L 420 445 L 400 432 L 373 421 L 365 419 L 360 419 L 359 418 L 353 418 L 352 417 Z
    M 327 420 L 348 420 L 349 421 L 356 421 L 357 422 L 362 422 L 383 428 L 402 437 L 418 448 L 438 468 L 453 491 L 461 511 L 465 528 L 465 535 L 466 536 L 466 561 L 465 562 L 465 568 L 461 585 L 453 605 L 438 628 L 425 642 L 402 659 L 378 670 L 375 670 L 367 673 L 363 673 L 357 675 L 349 675 L 348 676 L 326 676 L 325 675 L 318 675 L 317 674 L 303 672 L 288 667 L 272 659 L 255 647 L 236 628 L 225 612 L 216 593 L 212 581 L 209 568 L 209 562 L 208 561 L 208 535 L 214 509 L 223 488 L 237 467 L 255 449 L 274 436 L 300 425 L 312 422 L 317 422 L 318 421 L 326 421 Z
    M 416 396 L 417 397 L 416 409 L 415 412 L 410 415 L 406 413 L 405 411 L 410 406 Z
    M 176 347 L 177 346 L 178 348 L 177 349 Z
    M 177 346 L 178 345 L 179 346 L 178 347 Z
    M 192 338 L 183 342 L 179 346 L 178 345 L 182 339 L 185 339 L 188 337 Z
    M 186 336 L 187 335 L 188 336 L 187 337 Z
    M 425 335 L 426 334 L 427 336 L 426 337 Z
    M 187 335 L 188 334 L 190 335 L 189 336 Z
    M 189 334 L 190 333 L 193 334 L 192 335 Z
    M 427 325 L 428 326 L 428 330 L 427 331 L 426 330 L 426 326 Z
    M 428 318 L 429 319 L 429 324 L 428 325 L 427 324 L 427 319 Z
    M 431 300 L 432 301 L 432 306 L 429 319 L 428 318 L 428 312 Z
    M 432 294 L 433 295 L 433 300 L 432 301 L 431 300 L 431 295 Z
    M 434 283 L 435 284 L 435 289 L 433 295 L 432 294 L 432 289 Z
    M 435 278 L 436 279 L 435 283 L 434 282 Z
    M 436 272 L 437 273 L 436 277 L 435 276 Z
    M 436 269 L 437 268 L 438 269 L 437 270 Z
    M 492 147 L 495 148 L 497 151 L 494 156 L 489 156 L 482 154 L 472 154 L 468 157 L 467 160 L 467 170 L 466 171 L 466 181 L 465 182 L 463 214 L 462 215 L 462 225 L 461 226 L 461 236 L 460 237 L 458 259 L 455 270 L 452 293 L 451 294 L 446 327 L 444 333 L 444 339 L 443 340 L 443 345 L 442 346 L 442 351 L 441 352 L 441 357 L 440 358 L 440 363 L 437 376 L 437 382 L 435 389 L 433 409 L 432 410 L 431 419 L 426 425 L 414 417 L 417 415 L 419 409 L 419 402 L 420 401 L 425 360 L 426 359 L 426 354 L 427 353 L 427 348 L 428 347 L 428 342 L 431 329 L 431 323 L 433 317 L 433 312 L 434 311 L 434 306 L 436 300 L 436 294 L 437 293 L 437 288 L 438 287 L 439 276 L 442 263 L 443 249 L 445 242 L 445 235 L 446 234 L 446 227 L 447 226 L 447 219 L 448 218 L 448 211 L 449 210 L 449 203 L 450 202 L 450 194 L 451 193 L 453 173 L 455 165 L 455 158 L 457 152 L 463 146 L 475 145 L 476 146 Z
    M 409 26 L 415 30 L 423 38 L 426 43 L 430 59 L 430 73 L 429 74 L 428 83 L 423 95 L 416 105 L 412 113 L 412 117 L 411 118 L 411 134 L 412 135 L 413 146 L 417 159 L 421 167 L 427 175 L 437 193 L 441 209 L 440 236 L 439 237 L 439 242 L 438 243 L 438 247 L 437 248 L 437 252 L 436 253 L 436 257 L 430 283 L 430 289 L 429 290 L 429 295 L 428 296 L 426 313 L 424 320 L 424 326 L 423 327 L 421 357 L 420 358 L 420 372 L 416 388 L 410 400 L 400 410 L 379 402 L 366 399 L 361 399 L 360 398 L 352 398 L 351 397 L 323 397 L 322 398 L 315 398 L 314 399 L 304 400 L 281 407 L 267 414 L 255 414 L 254 415 L 249 415 L 248 414 L 224 414 L 223 413 L 202 413 L 200 414 L 189 410 L 190 413 L 195 414 L 197 416 L 193 423 L 192 440 L 191 441 L 191 446 L 189 454 L 183 469 L 169 490 L 154 523 L 145 550 L 141 566 L 142 595 L 140 600 L 135 605 L 132 606 L 118 606 L 103 601 L 66 602 L 65 601 L 54 600 L 51 598 L 48 598 L 44 600 L 41 599 L 39 597 L 39 595 L 42 592 L 53 591 L 53 590 L 44 590 L 43 589 L 46 588 L 41 586 L 43 585 L 42 584 L 44 582 L 64 577 L 67 575 L 80 571 L 96 563 L 105 555 L 110 547 L 118 525 L 123 505 L 123 501 L 127 488 L 127 484 L 131 471 L 131 467 L 134 458 L 134 454 L 149 398 L 149 388 L 150 387 L 151 377 L 153 372 L 160 363 L 165 360 L 173 358 L 189 357 L 190 356 L 218 352 L 224 350 L 236 349 L 249 346 L 256 346 L 257 345 L 265 345 L 266 344 L 291 343 L 292 342 L 318 343 L 319 344 L 365 344 L 364 341 L 374 331 L 381 315 L 383 313 L 403 274 L 414 245 L 412 245 L 409 249 L 401 270 L 388 296 L 386 298 L 372 326 L 372 328 L 369 333 L 363 338 L 359 339 L 345 339 L 344 340 L 336 340 L 335 341 L 311 340 L 310 339 L 272 340 L 271 341 L 245 343 L 240 345 L 222 347 L 210 350 L 194 350 L 189 353 L 185 354 L 184 353 L 189 347 L 200 344 L 199 342 L 191 344 L 186 347 L 180 355 L 176 354 L 183 344 L 191 340 L 198 339 L 198 337 L 195 338 L 191 337 L 197 335 L 197 334 L 194 334 L 193 333 L 197 331 L 205 331 L 206 332 L 224 331 L 263 322 L 290 313 L 316 302 L 336 296 L 343 292 L 353 257 L 361 240 L 360 223 L 361 222 L 363 208 L 366 201 L 366 195 L 365 194 L 363 203 L 361 205 L 359 211 L 359 215 L 357 221 L 357 236 L 358 238 L 350 256 L 341 288 L 339 291 L 335 293 L 332 292 L 332 276 L 333 275 L 333 267 L 334 266 L 333 234 L 336 222 L 364 171 L 366 165 L 366 157 L 364 153 L 362 142 L 357 137 L 360 134 L 353 137 L 347 137 L 346 138 L 338 136 L 335 133 L 335 122 L 332 119 L 332 117 L 333 116 L 340 116 L 341 114 L 331 114 L 330 113 L 330 105 L 328 103 L 325 103 L 321 100 L 331 81 L 331 75 L 329 72 L 329 65 L 334 52 L 334 48 L 337 40 L 347 29 L 351 27 L 375 21 L 392 21 L 393 22 L 402 23 Z
    M 132 562 L 129 567 L 128 574 L 125 578 L 127 578 L 130 574 L 131 566 L 133 563 Z
    M 401 163 L 390 162 L 383 164 L 377 168 L 373 173 L 383 166 L 389 164 L 399 164 L 400 165 Z
    M 383 117 L 381 118 L 380 122 L 372 129 L 375 129 L 380 125 L 383 120 Z
    M 335 101 L 334 101 L 333 104 L 335 103 Z
    M 383 93 L 382 97 L 385 98 L 387 96 L 385 96 L 384 95 L 385 94 Z
    M 336 78 L 338 80 L 338 84 L 343 83 L 346 81 L 346 80 L 338 77 Z
    M 340 80 L 341 79 L 342 81 L 341 82 Z
    M 393 76 L 386 76 L 380 81 L 380 82 L 383 81 L 384 82 L 383 84 L 384 86 L 388 81 L 390 81 L 392 83 L 392 89 L 394 88 L 395 89 L 389 100 L 384 104 L 381 103 L 384 106 L 390 103 L 398 88 L 397 80 Z
    M 395 82 L 396 83 L 396 88 L 395 89 L 394 88 L 394 83 Z
    M 393 81 L 394 80 L 395 82 L 394 83 Z
    M 383 81 L 384 80 L 385 81 L 384 82 Z
    M 392 80 L 393 79 L 394 80 L 393 81 Z
    M 384 80 L 385 79 L 386 80 L 385 81 Z
    M 385 79 L 388 77 L 391 77 L 393 79 L 392 80 L 386 80 Z
    M 332 73 L 340 71 L 347 74 L 343 70 L 336 70 Z" fill="#000000" fill-rule="evenodd"/>
</svg>
