<?xml version="1.0" encoding="UTF-8"?>
<svg xmlns="http://www.w3.org/2000/svg" width="1051" height="299" viewBox="0 0 1051 299" role="img" aria-label="Side Lying View">
  <title>Side Lying View</title>
  <path d="M 18 244 L 19 247 L 24 251 L 39 258 L 52 261 L 63 261 L 64 260 L 187 260 L 188 259 L 215 259 L 216 260 L 243 261 L 251 259 L 254 255 L 254 250 L 251 248 L 251 254 L 247 257 L 243 257 L 242 258 L 224 257 L 223 256 L 154 257 L 153 256 L 138 256 L 137 255 L 130 255 L 129 254 L 119 253 L 93 244 L 79 242 L 78 241 L 63 241 L 41 248 L 28 248 L 21 244 L 24 241 L 29 239 L 39 232 L 49 221 L 56 210 L 63 202 L 73 193 L 83 187 L 71 192 L 63 198 L 43 224 L 30 235 L 22 239 Z
    M 32 251 L 33 250 L 45 249 L 63 243 L 79 243 L 80 244 L 86 244 L 94 246 L 113 253 L 126 256 L 125 257 L 76 256 L 75 257 L 55 258 L 54 257 L 48 257 L 40 255 Z
    M 1031 252 L 1031 245 L 1029 242 L 1032 236 L 1032 231 L 1029 227 L 1029 221 L 1025 217 L 1026 215 L 1023 211 L 1023 208 L 1009 197 L 1003 195 L 985 194 L 968 189 L 954 187 L 950 185 L 932 183 L 907 174 L 902 171 L 888 166 L 845 147 L 824 140 L 811 137 L 806 137 L 805 136 L 799 136 L 798 135 L 771 134 L 770 133 L 756 131 L 732 123 L 697 106 L 695 106 L 680 99 L 672 97 L 669 95 L 629 84 L 624 84 L 619 82 L 601 79 L 600 78 L 601 77 L 621 76 L 632 71 L 639 64 L 639 62 L 636 58 L 640 56 L 644 51 L 644 45 L 643 44 L 645 41 L 645 37 L 641 33 L 640 28 L 636 26 L 621 27 L 619 21 L 614 18 L 605 18 L 593 22 L 588 22 L 576 25 L 570 28 L 559 37 L 552 41 L 526 42 L 525 43 L 486 43 L 485 42 L 460 40 L 459 39 L 436 40 L 424 43 L 399 43 L 398 42 L 393 42 L 392 41 L 372 38 L 371 37 L 348 36 L 347 35 L 342 35 L 337 33 L 332 33 L 325 31 L 303 31 L 292 34 L 283 38 L 268 48 L 260 56 L 255 65 L 252 77 L 243 89 L 240 96 L 229 109 L 222 113 L 216 115 L 199 114 L 192 107 L 186 105 L 184 103 L 185 102 L 184 99 L 181 96 L 163 88 L 156 88 L 152 91 L 148 91 L 135 87 L 118 87 L 102 93 L 91 102 L 86 109 L 81 119 L 78 132 L 78 147 L 81 158 L 87 169 L 92 175 L 99 180 L 96 183 L 92 184 L 105 183 L 116 187 L 135 188 L 136 187 L 143 187 L 144 186 L 154 185 L 167 181 L 190 181 L 206 186 L 209 186 L 219 190 L 223 193 L 225 193 L 229 197 L 235 214 L 241 226 L 250 237 L 257 242 L 270 248 L 282 251 L 287 251 L 288 252 L 319 252 L 320 251 L 326 251 L 333 249 L 347 248 L 348 247 L 359 246 L 365 244 L 370 244 L 400 237 L 411 237 L 412 238 L 417 238 L 418 239 L 422 239 L 448 245 L 452 247 L 455 247 L 459 249 L 462 249 L 466 251 L 486 256 L 491 256 L 504 259 L 512 259 L 513 260 L 543 260 L 544 259 L 551 259 L 552 260 L 563 260 L 564 261 L 574 261 L 575 262 L 584 262 L 585 263 L 601 263 L 602 264 L 603 263 L 604 264 L 646 264 L 647 263 L 648 264 L 649 263 L 662 263 L 663 262 L 681 261 L 682 260 L 695 259 L 696 258 L 714 256 L 715 255 L 740 255 L 741 256 L 753 257 L 781 265 L 793 266 L 794 267 L 806 267 L 807 268 L 809 267 L 810 268 L 836 268 L 837 267 L 862 267 L 863 266 L 923 266 L 934 269 L 946 270 L 947 271 L 961 273 L 988 280 L 1001 280 L 1002 279 L 1014 280 L 1018 277 L 1021 272 L 1023 272 L 1025 270 L 1025 267 L 1029 263 L 1030 260 L 1029 255 Z
    M 874 218 L 875 217 L 880 217 L 881 218 L 894 219 L 901 221 L 914 222 L 932 227 L 931 228 L 910 227 Z
    M 870 217 L 871 216 L 875 217 L 874 218 Z
    M 733 193 L 734 192 L 740 192 L 741 193 L 759 194 L 770 198 L 769 199 L 756 198 L 755 197 L 739 195 Z
    M 728 192 L 729 191 L 732 192 L 731 193 Z
    M 220 188 L 221 187 L 222 188 L 221 189 Z
    M 179 178 L 180 177 L 203 178 L 211 180 L 217 183 L 221 187 L 219 188 L 207 183 L 193 181 L 192 180 L 185 180 Z
    M 190 112 L 191 111 L 192 112 L 191 113 Z
    M 159 99 L 160 98 L 161 99 L 160 100 Z
    M 157 98 L 158 97 L 159 98 L 158 99 Z
    M 156 97 L 157 96 L 158 97 L 157 98 Z
    M 1028 251 L 1024 254 L 1024 256 L 1026 257 L 1026 262 L 1021 264 L 1022 268 L 1020 270 L 1015 270 L 1016 274 L 1012 277 L 1007 277 L 1006 276 L 990 277 L 958 269 L 953 269 L 941 266 L 935 266 L 926 263 L 797 264 L 796 263 L 789 263 L 788 262 L 774 260 L 750 253 L 732 252 L 731 251 L 712 252 L 711 253 L 705 253 L 704 254 L 680 257 L 679 258 L 659 259 L 658 260 L 644 260 L 643 261 L 609 261 L 608 260 L 590 260 L 589 259 L 575 259 L 574 258 L 566 258 L 565 257 L 554 257 L 553 255 L 565 248 L 573 239 L 573 237 L 559 250 L 547 256 L 540 256 L 539 257 L 518 257 L 517 256 L 507 256 L 506 255 L 494 254 L 468 248 L 464 246 L 461 246 L 457 244 L 446 242 L 434 238 L 414 235 L 413 234 L 397 234 L 396 235 L 392 235 L 387 237 L 383 237 L 382 238 L 378 238 L 352 244 L 335 245 L 334 246 L 328 246 L 324 248 L 318 248 L 317 249 L 291 249 L 290 248 L 284 248 L 271 245 L 264 242 L 253 235 L 247 229 L 242 221 L 236 208 L 233 198 L 228 189 L 221 182 L 210 176 L 202 175 L 201 174 L 179 174 L 178 173 L 184 168 L 184 167 L 182 167 L 170 177 L 148 183 L 142 183 L 141 184 L 119 184 L 118 183 L 113 183 L 103 179 L 92 170 L 85 159 L 81 144 L 81 133 L 86 116 L 92 106 L 99 99 L 107 94 L 121 90 L 133 90 L 134 91 L 143 92 L 151 95 L 155 100 L 162 103 L 164 103 L 164 102 L 162 100 L 163 99 L 159 96 L 160 95 L 166 98 L 175 100 L 173 98 L 168 97 L 160 93 L 157 93 L 157 96 L 156 97 L 154 93 L 156 91 L 162 91 L 178 98 L 182 102 L 180 104 L 175 104 L 175 105 L 183 106 L 189 109 L 191 111 L 190 112 L 185 111 L 185 113 L 187 114 L 190 114 L 196 117 L 203 117 L 204 118 L 216 118 L 223 116 L 233 110 L 240 102 L 247 89 L 254 80 L 258 66 L 263 58 L 272 49 L 282 42 L 292 37 L 302 34 L 326 34 L 327 35 L 332 35 L 348 39 L 366 39 L 367 40 L 378 41 L 383 43 L 399 45 L 400 46 L 425 46 L 430 44 L 441 43 L 442 42 L 461 42 L 462 43 L 470 43 L 471 44 L 487 45 L 488 46 L 520 46 L 521 45 L 537 45 L 538 44 L 555 43 L 576 28 L 582 26 L 592 25 L 605 21 L 613 21 L 617 24 L 617 26 L 615 28 L 609 30 L 597 30 L 595 29 L 594 31 L 599 33 L 601 32 L 612 32 L 613 31 L 626 30 L 627 29 L 636 29 L 638 31 L 637 33 L 633 31 L 635 33 L 631 36 L 628 36 L 621 39 L 609 41 L 608 42 L 609 43 L 630 39 L 636 36 L 640 36 L 642 38 L 642 40 L 639 43 L 631 47 L 622 50 L 612 51 L 608 53 L 609 54 L 630 50 L 638 46 L 641 47 L 640 51 L 634 56 L 620 61 L 613 61 L 608 64 L 608 65 L 611 66 L 616 66 L 621 63 L 625 63 L 628 61 L 634 61 L 636 63 L 635 65 L 632 66 L 629 69 L 620 73 L 599 74 L 596 76 L 585 77 L 584 78 L 574 77 L 564 74 L 542 75 L 541 76 L 536 76 L 524 79 L 493 89 L 481 92 L 476 92 L 475 93 L 468 93 L 467 94 L 439 94 L 438 93 L 431 93 L 430 92 L 423 92 L 422 91 L 394 90 L 368 84 L 349 78 L 338 71 L 335 72 L 338 74 L 337 75 L 326 75 L 325 76 L 326 77 L 343 78 L 348 81 L 363 86 L 387 92 L 392 92 L 399 94 L 420 94 L 421 95 L 435 96 L 436 97 L 468 97 L 469 96 L 483 95 L 525 82 L 537 79 L 551 78 L 552 77 L 560 77 L 561 78 L 567 78 L 580 81 L 593 80 L 594 81 L 628 87 L 652 93 L 681 103 L 686 106 L 702 112 L 715 119 L 717 119 L 728 125 L 747 132 L 768 136 L 769 137 L 803 139 L 804 140 L 809 140 L 826 144 L 838 149 L 846 151 L 896 173 L 930 186 L 948 188 L 957 191 L 972 193 L 989 198 L 1002 198 L 1010 201 L 1013 204 L 1014 207 L 1017 207 L 1020 209 L 1018 213 L 1021 213 L 1023 215 L 1022 219 L 1027 223 L 1025 228 L 1029 232 L 1029 236 L 1027 239 L 1025 239 L 1020 237 L 1014 237 L 1009 233 L 999 230 L 971 232 L 967 230 L 959 230 L 953 228 L 943 228 L 931 216 L 929 216 L 935 223 L 934 224 L 925 221 L 915 220 L 909 218 L 836 209 L 832 207 L 808 201 L 784 199 L 759 191 L 719 188 L 718 187 L 710 187 L 709 186 L 671 182 L 670 181 L 640 179 L 639 178 L 630 178 L 629 177 L 620 177 L 619 176 L 610 176 L 609 175 L 601 175 L 600 174 L 579 172 L 576 170 L 581 166 L 588 154 L 590 146 L 591 130 L 589 122 L 587 123 L 588 125 L 588 140 L 585 152 L 580 162 L 573 169 L 568 171 L 538 170 L 530 168 L 529 169 L 530 172 L 570 174 L 577 180 L 580 186 L 583 198 L 582 214 L 579 225 L 576 230 L 577 233 L 579 231 L 583 222 L 586 209 L 586 196 L 585 195 L 584 187 L 580 179 L 577 176 L 578 175 L 583 175 L 584 176 L 616 179 L 617 180 L 627 180 L 628 181 L 638 181 L 639 182 L 649 182 L 650 183 L 676 185 L 677 186 L 699 189 L 700 190 L 704 190 L 705 191 L 709 191 L 735 197 L 740 197 L 745 199 L 756 200 L 757 201 L 789 202 L 790 203 L 806 204 L 866 219 L 870 221 L 878 222 L 909 230 L 915 230 L 916 231 L 934 231 L 937 230 L 938 231 L 932 234 L 929 239 L 934 235 L 945 231 L 957 232 L 963 234 L 991 234 L 992 233 L 1003 234 L 1014 241 L 1017 240 L 1024 242 L 1028 246 Z
    M 929 254 L 929 257 L 934 262 L 940 264 L 940 263 L 934 260 Z
    M 729 233 L 729 235 L 744 240 L 744 238 Z
    M 749 211 L 741 212 L 740 213 L 734 213 L 733 215 L 746 214 Z
    M 946 196 L 943 196 L 937 199 L 936 201 L 944 198 Z
    M 737 171 L 754 178 L 750 174 L 745 173 L 739 170 Z
    M 759 148 L 743 149 L 742 151 L 754 151 L 758 150 Z
    M 567 87 L 566 88 L 574 95 L 579 102 L 584 113 L 585 113 L 584 107 L 578 97 Z" fill="#000000" fill-rule="evenodd"/>
</svg>
