<?xml version="1.0" encoding="UTF-8"?>
<svg xmlns="http://www.w3.org/2000/svg" width="368" height="1374" viewBox="0 0 368 1374" role="img" aria-label="Standing Back Right Half">
  <title>Standing Back Right Half</title>
  <path d="M 25 18 L 22 18 L 22 69 L 21 70 L 22 103 L 21 104 L 21 531 L 20 532 L 20 899 L 19 900 L 20 918 L 19 919 L 18 1355 L 22 1354 L 24 700 L 39 693 L 40 694 L 41 712 L 42 713 L 42 721 L 43 722 L 43 730 L 44 731 L 46 753 L 47 754 L 50 773 L 52 778 L 52 782 L 57 799 L 57 803 L 60 814 L 60 820 L 61 821 L 63 864 L 64 865 L 64 876 L 65 877 L 65 889 L 66 890 L 67 906 L 68 907 L 68 912 L 71 925 L 79 947 L 78 949 L 77 967 L 75 975 L 75 982 L 74 983 L 74 991 L 73 992 L 72 1022 L 73 1023 L 73 1032 L 74 1033 L 74 1038 L 76 1046 L 84 1068 L 85 1081 L 86 1082 L 86 1088 L 87 1089 L 87 1095 L 89 1103 L 89 1111 L 90 1112 L 91 1132 L 92 1133 L 92 1142 L 93 1143 L 93 1159 L 94 1160 L 94 1166 L 90 1178 L 90 1187 L 92 1192 L 92 1196 L 91 1197 L 91 1215 L 94 1226 L 94 1238 L 95 1239 L 95 1255 L 94 1256 L 94 1267 L 93 1268 L 93 1293 L 95 1301 L 101 1311 L 101 1319 L 105 1329 L 110 1333 L 120 1333 L 127 1326 L 129 1327 L 134 1326 L 139 1320 L 145 1318 L 149 1312 L 155 1309 L 157 1305 L 157 1301 L 162 1296 L 164 1290 L 164 1281 L 156 1260 L 153 1231 L 144 1195 L 146 1180 L 141 1164 L 142 1163 L 143 1137 L 144 1136 L 144 1129 L 145 1128 L 148 1099 L 149 1098 L 150 1087 L 152 1082 L 154 1066 L 155 1065 L 158 1045 L 161 1034 L 162 1018 L 163 1017 L 162 981 L 161 980 L 161 974 L 160 973 L 158 959 L 152 937 L 152 885 L 151 884 L 151 872 L 152 871 L 152 862 L 154 855 L 155 843 L 156 842 L 161 809 L 162 808 L 163 793 L 165 785 L 165 776 L 166 775 L 166 767 L 167 766 L 167 753 L 168 752 L 168 695 L 167 694 L 166 672 L 165 671 L 163 650 L 162 649 L 162 644 L 161 643 L 161 638 L 158 625 L 154 581 L 153 580 L 153 575 L 152 574 L 152 569 L 150 561 L 147 554 L 147 545 L 144 533 L 142 512 L 141 511 L 142 478 L 143 477 L 145 461 L 152 434 L 152 430 L 154 426 L 168 468 L 170 471 L 173 483 L 177 492 L 180 516 L 185 527 L 194 556 L 203 575 L 240 640 L 253 669 L 253 689 L 254 690 L 254 695 L 257 707 L 262 721 L 268 731 L 273 747 L 281 762 L 286 766 L 290 766 L 293 764 L 298 772 L 304 777 L 309 777 L 313 775 L 319 780 L 326 779 L 328 777 L 329 772 L 336 770 L 338 767 L 338 757 L 334 746 L 332 735 L 330 732 L 330 729 L 328 726 L 328 723 L 325 716 L 324 710 L 325 709 L 329 714 L 336 718 L 344 718 L 349 712 L 348 708 L 342 702 L 339 696 L 330 684 L 325 673 L 310 660 L 295 650 L 292 639 L 290 636 L 289 631 L 283 618 L 278 603 L 273 583 L 269 556 L 268 555 L 268 551 L 267 550 L 263 529 L 257 511 L 248 493 L 246 491 L 237 471 L 235 456 L 234 455 L 234 449 L 233 448 L 233 442 L 230 429 L 230 422 L 229 421 L 226 396 L 220 373 L 221 341 L 220 340 L 219 324 L 213 301 L 204 286 L 196 278 L 189 273 L 174 266 L 150 262 L 104 239 L 98 235 L 88 225 L 86 218 L 86 198 L 88 194 L 90 180 L 91 179 L 96 179 L 100 176 L 102 172 L 102 168 L 104 162 L 109 152 L 112 142 L 112 133 L 111 131 L 107 128 L 104 129 L 102 128 L 103 124 L 103 98 L 102 97 L 102 93 L 99 84 L 94 75 L 82 63 L 76 59 L 65 54 L 53 51 L 41 50 L 40 51 L 26 52 L 25 51 Z
    M 133 1314 L 135 1316 L 135 1320 L 133 1322 L 129 1323 L 126 1318 Z
    M 125 1314 L 126 1313 L 128 1314 L 127 1315 Z
    M 104 1314 L 105 1313 L 111 1316 L 122 1315 L 124 1319 L 123 1326 L 117 1330 L 111 1329 L 107 1325 L 105 1321 Z
    M 129 1313 L 130 1312 L 131 1313 L 130 1314 Z
    M 142 1307 L 145 1310 L 145 1312 L 141 1316 L 138 1316 L 136 1312 Z
    M 152 1298 L 154 1303 L 150 1308 L 147 1308 L 145 1305 Z
    M 160 1283 L 161 1284 L 160 1292 L 155 1297 L 154 1294 L 157 1291 L 156 1289 Z
    M 38 54 L 46 54 L 47 55 L 54 55 L 62 57 L 78 65 L 92 79 L 98 92 L 99 104 L 100 105 L 100 118 L 99 119 L 99 129 L 97 136 L 97 143 L 100 136 L 104 132 L 108 133 L 109 140 L 106 151 L 100 163 L 97 174 L 96 175 L 92 175 L 91 174 L 92 162 L 91 162 L 88 170 L 86 186 L 82 200 L 83 223 L 85 228 L 93 236 L 103 243 L 148 265 L 171 269 L 185 275 L 195 282 L 200 287 L 205 294 L 210 304 L 215 324 L 216 339 L 217 340 L 216 373 L 223 401 L 227 435 L 228 436 L 229 448 L 230 449 L 233 470 L 235 474 L 236 480 L 251 507 L 258 525 L 263 545 L 268 578 L 273 599 L 279 618 L 291 648 L 291 650 L 287 652 L 289 654 L 291 653 L 295 654 L 323 676 L 328 688 L 336 698 L 339 703 L 339 705 L 345 710 L 342 711 L 338 708 L 340 711 L 344 713 L 342 715 L 338 715 L 334 713 L 320 698 L 319 692 L 318 692 L 318 702 L 321 711 L 321 715 L 329 738 L 331 749 L 335 760 L 335 764 L 332 768 L 330 768 L 326 764 L 319 743 L 313 730 L 310 720 L 309 720 L 308 723 L 317 749 L 325 768 L 325 774 L 322 777 L 319 776 L 314 770 L 300 737 L 299 732 L 296 726 L 290 723 L 290 725 L 292 725 L 295 728 L 299 743 L 309 764 L 311 771 L 309 773 L 305 773 L 302 771 L 290 749 L 283 728 L 281 726 L 277 725 L 282 730 L 282 735 L 285 745 L 289 754 L 291 756 L 291 761 L 290 762 L 287 762 L 284 760 L 276 745 L 276 743 L 281 741 L 281 740 L 277 740 L 277 742 L 276 743 L 275 742 L 272 731 L 266 721 L 260 704 L 257 691 L 257 680 L 256 679 L 257 668 L 255 665 L 257 663 L 257 661 L 255 663 L 253 661 L 250 652 L 238 628 L 209 578 L 197 553 L 193 542 L 190 529 L 184 517 L 181 493 L 167 451 L 165 448 L 155 415 L 157 409 L 157 404 L 160 394 L 160 390 L 168 359 L 168 354 L 169 353 L 166 352 L 161 374 L 157 386 L 148 435 L 142 457 L 140 472 L 139 473 L 139 479 L 138 480 L 138 491 L 137 492 L 138 519 L 139 520 L 139 526 L 142 538 L 143 553 L 148 568 L 148 573 L 150 580 L 154 624 L 155 625 L 155 631 L 156 632 L 156 637 L 157 638 L 157 643 L 158 644 L 158 649 L 161 662 L 162 678 L 163 679 L 163 692 L 164 693 L 164 715 L 165 716 L 164 754 L 163 755 L 162 778 L 161 779 L 161 786 L 160 787 L 157 815 L 154 827 L 154 832 L 153 833 L 153 838 L 152 839 L 150 856 L 149 857 L 149 864 L 148 865 L 148 936 L 157 974 L 158 990 L 159 991 L 159 1018 L 158 1019 L 158 1027 L 157 1028 L 156 1040 L 150 1066 L 150 1071 L 148 1077 L 148 1082 L 147 1083 L 147 1088 L 144 1101 L 144 1107 L 142 1114 L 140 1138 L 139 1139 L 139 1149 L 138 1150 L 138 1162 L 137 1163 L 142 1179 L 142 1187 L 140 1191 L 139 1199 L 142 1200 L 144 1208 L 144 1212 L 150 1236 L 151 1254 L 158 1275 L 158 1280 L 155 1287 L 153 1288 L 151 1294 L 143 1303 L 134 1308 L 124 1310 L 117 1313 L 109 1312 L 102 1307 L 98 1299 L 97 1290 L 96 1289 L 96 1276 L 97 1275 L 97 1263 L 98 1262 L 98 1235 L 99 1234 L 98 1233 L 99 1231 L 94 1211 L 94 1200 L 98 1185 L 95 1188 L 93 1184 L 94 1176 L 97 1169 L 96 1135 L 95 1134 L 95 1124 L 94 1123 L 94 1115 L 93 1114 L 93 1107 L 92 1106 L 92 1098 L 91 1097 L 90 1084 L 88 1077 L 88 1067 L 80 1047 L 77 1035 L 77 1029 L 76 1028 L 76 1000 L 77 999 L 77 989 L 78 988 L 78 980 L 79 979 L 79 972 L 80 971 L 80 964 L 81 963 L 81 954 L 82 953 L 83 940 L 90 913 L 92 898 L 91 897 L 86 923 L 81 940 L 79 938 L 71 910 L 69 884 L 68 883 L 68 871 L 67 870 L 67 855 L 66 854 L 66 838 L 65 837 L 64 816 L 63 815 L 63 810 L 60 800 L 60 796 L 51 762 L 43 695 L 44 694 L 50 700 L 65 708 L 73 709 L 74 710 L 81 710 L 82 711 L 101 710 L 114 706 L 123 701 L 136 687 L 139 681 L 141 673 L 140 672 L 136 684 L 132 690 L 126 696 L 114 703 L 105 706 L 100 706 L 99 707 L 77 707 L 62 703 L 54 699 L 44 689 L 42 685 L 41 662 L 40 661 L 40 631 L 41 630 L 41 622 L 42 621 L 41 620 L 39 628 L 39 645 L 38 646 L 39 687 L 31 694 L 28 695 L 24 694 L 25 179 L 26 178 L 36 181 L 53 180 L 63 176 L 70 168 L 63 174 L 52 178 L 32 178 L 31 177 L 27 177 L 26 178 L 25 177 L 25 57 Z
    M 123 1186 L 124 1188 L 133 1193 L 131 1185 L 129 1182 L 128 1182 L 129 1185 L 128 1188 Z
    M 104 1177 L 110 1174 L 117 1174 L 121 1176 L 122 1175 L 118 1172 L 110 1172 L 106 1174 Z
    M 130 902 L 132 912 L 137 922 L 138 927 L 141 933 L 142 933 L 142 930 L 133 910 L 132 904 Z
    M 292 746 L 295 746 L 297 744 L 293 744 Z
    M 306 745 L 309 745 L 311 743 L 308 743 Z
    M 325 737 L 322 737 L 319 739 L 320 740 Z
    M 306 708 L 306 712 L 308 714 L 307 708 Z
    M 39 542 L 37 544 L 38 546 L 42 547 L 44 545 L 44 543 L 40 543 Z
    M 38 522 L 41 525 L 44 523 L 43 521 L 41 522 L 39 521 Z
    M 37 499 L 40 502 L 45 500 L 44 497 L 42 498 L 39 497 Z
    M 191 491 L 192 498 L 199 509 L 201 514 L 204 516 L 199 506 L 200 505 L 206 506 L 210 504 L 213 499 L 207 503 L 200 503 L 199 502 L 197 503 L 193 496 L 193 493 Z
    M 198 505 L 199 504 L 200 505 L 199 506 Z
    M 197 504 L 198 503 L 199 504 L 198 505 Z
    M 220 483 L 219 484 L 219 494 L 221 488 L 221 484 Z
    M 38 479 L 43 480 L 44 478 L 43 477 L 39 477 Z
    M 38 455 L 38 457 L 41 459 L 45 457 L 44 454 L 42 455 L 39 454 Z
    M 39 430 L 40 433 L 44 432 L 43 430 Z
    M 39 411 L 39 414 L 41 415 L 44 413 L 43 411 L 42 412 Z
    M 39 386 L 41 389 L 44 387 L 44 386 Z
    M 103 136 L 101 140 L 101 152 L 95 167 L 97 165 L 102 154 L 103 150 Z" fill="#000000" fill-rule="evenodd"/>
</svg>
