<?xml version="1.0" encoding="UTF-8"?>
<svg xmlns="http://www.w3.org/2000/svg" width="368" height="1374" viewBox="0 0 368 1374" role="img" aria-label="Standing Front Left Half">
  <title>Standing Front Left Half</title>
  <path d="M 343 18 L 342 19 L 342 48 L 341 49 L 339 48 L 332 48 L 331 47 L 315 48 L 298 53 L 286 60 L 277 69 L 270 82 L 268 88 L 268 92 L 267 93 L 267 121 L 268 122 L 268 126 L 267 127 L 263 127 L 258 131 L 257 141 L 268 174 L 273 178 L 276 177 L 278 180 L 280 192 L 283 197 L 283 226 L 276 233 L 270 237 L 226 258 L 224 258 L 215 263 L 198 265 L 182 272 L 176 276 L 164 288 L 156 302 L 149 325 L 149 331 L 147 339 L 148 376 L 146 381 L 146 385 L 139 413 L 131 469 L 128 479 L 112 508 L 105 526 L 105 529 L 100 545 L 94 581 L 89 601 L 85 611 L 85 614 L 74 640 L 71 650 L 57 660 L 42 673 L 34 689 L 28 696 L 25 702 L 19 708 L 18 714 L 23 718 L 31 718 L 39 713 L 40 711 L 41 712 L 39 723 L 34 736 L 34 740 L 28 762 L 30 769 L 32 771 L 37 771 L 39 777 L 42 780 L 48 780 L 54 775 L 58 778 L 63 777 L 67 774 L 73 764 L 76 766 L 80 766 L 86 761 L 91 752 L 91 750 L 93 748 L 97 734 L 105 719 L 111 701 L 112 693 L 113 692 L 114 668 L 128 637 L 162 578 L 173 555 L 179 538 L 180 532 L 186 519 L 189 495 L 193 486 L 200 463 L 202 460 L 202 457 L 207 446 L 209 437 L 211 436 L 221 475 L 221 481 L 223 489 L 223 513 L 222 514 L 221 526 L 219 533 L 220 553 L 216 564 L 213 581 L 212 582 L 209 614 L 208 615 L 208 624 L 207 625 L 207 630 L 206 631 L 206 636 L 205 637 L 205 642 L 202 655 L 200 677 L 199 678 L 199 686 L 198 687 L 198 699 L 197 700 L 197 751 L 198 752 L 199 774 L 200 775 L 200 783 L 201 784 L 204 812 L 205 813 L 206 824 L 210 841 L 212 860 L 213 861 L 213 869 L 214 870 L 213 873 L 213 933 L 206 959 L 205 969 L 203 975 L 202 990 L 201 991 L 201 1016 L 202 1017 L 203 1033 L 209 1059 L 209 1064 L 210 1065 L 210 1070 L 211 1071 L 211 1076 L 212 1077 L 212 1082 L 214 1088 L 217 1112 L 219 1119 L 222 1152 L 223 1153 L 223 1170 L 219 1180 L 219 1186 L 221 1194 L 213 1208 L 206 1235 L 200 1250 L 194 1261 L 191 1272 L 187 1279 L 187 1290 L 189 1294 L 192 1296 L 191 1298 L 192 1302 L 196 1306 L 199 1307 L 204 1314 L 209 1315 L 216 1321 L 221 1321 L 224 1319 L 227 1323 L 231 1325 L 241 1325 L 250 1317 L 253 1309 L 253 1306 L 261 1296 L 264 1286 L 264 1262 L 265 1261 L 267 1241 L 271 1233 L 275 1228 L 279 1218 L 279 1208 L 274 1194 L 275 1178 L 272 1169 L 272 1146 L 273 1145 L 274 1123 L 275 1122 L 276 1106 L 277 1105 L 278 1091 L 279 1090 L 279 1084 L 281 1076 L 281 1069 L 282 1068 L 284 1054 L 289 1038 L 290 1027 L 291 1026 L 292 1002 L 291 1001 L 291 989 L 290 988 L 290 980 L 289 979 L 289 971 L 288 970 L 288 962 L 287 961 L 287 946 L 295 921 L 295 917 L 298 906 L 299 890 L 300 889 L 300 876 L 301 875 L 301 857 L 302 856 L 302 841 L 303 840 L 304 820 L 305 819 L 307 802 L 314 776 L 314 772 L 319 751 L 325 698 L 326 697 L 337 698 L 343 695 L 344 696 L 345 1305 L 346 1306 L 346 1355 L 349 1355 L 348 841 L 347 840 L 346 19 Z
    M 213 1313 L 214 1312 L 216 1314 L 222 1313 L 223 1315 L 221 1317 L 217 1317 Z
    M 227 1311 L 228 1310 L 229 1311 L 228 1312 Z
    M 215 1311 L 217 1309 L 219 1309 L 221 1311 L 219 1313 Z
    M 228 1309 L 229 1308 L 230 1309 L 229 1310 Z
    M 213 1309 L 214 1308 L 215 1310 L 214 1311 Z
    M 230 1312 L 230 1310 L 234 1306 L 240 1308 L 242 1310 L 239 1314 L 235 1314 Z
    M 203 1307 L 206 1304 L 208 1304 L 211 1307 L 211 1309 L 209 1311 L 207 1311 Z
    M 203 1303 L 204 1302 L 205 1303 L 204 1304 Z
    M 197 1302 L 200 1300 L 202 1301 L 200 1303 Z
    M 196 1301 L 197 1300 L 198 1301 L 197 1302 Z
    M 195 1296 L 196 1295 L 197 1296 L 196 1297 Z
    M 192 1287 L 195 1289 L 193 1292 L 191 1290 Z
    M 40 711 L 41 710 L 42 711 L 41 712 Z
    M 22 710 L 23 709 L 24 710 L 23 711 Z
    M 23 709 L 25 707 L 26 708 L 25 710 Z
    M 25 707 L 26 706 L 27 707 L 26 708 Z
    M 110 664 L 111 663 L 112 665 L 111 666 Z
    M 111 662 L 112 661 L 113 663 L 112 664 Z
    M 287 204 L 301 218 L 314 226 L 330 227 L 331 228 L 339 226 L 343 227 L 342 228 L 343 274 L 338 281 L 341 279 L 343 280 L 342 281 L 343 282 L 343 290 L 342 291 L 342 305 L 343 306 L 343 394 L 342 396 L 343 397 L 343 654 L 344 655 L 344 690 L 341 693 L 334 695 L 329 693 L 321 694 L 317 692 L 310 684 L 304 668 L 291 653 L 287 646 L 286 646 L 290 655 L 302 670 L 305 681 L 310 690 L 313 693 L 322 698 L 321 699 L 321 709 L 320 710 L 320 718 L 319 719 L 319 726 L 318 727 L 315 754 L 307 786 L 307 790 L 304 799 L 302 815 L 301 816 L 295 904 L 294 905 L 291 922 L 285 939 L 280 959 L 280 963 L 283 956 L 284 957 L 284 966 L 285 967 L 285 975 L 286 976 L 287 993 L 288 994 L 288 1020 L 287 1021 L 287 1029 L 286 1030 L 285 1040 L 281 1052 L 279 1065 L 278 1066 L 278 1071 L 277 1072 L 275 1093 L 273 1101 L 273 1108 L 272 1109 L 272 1116 L 271 1117 L 270 1137 L 269 1138 L 269 1152 L 268 1153 L 268 1167 L 272 1181 L 272 1185 L 268 1195 L 267 1205 L 269 1204 L 271 1197 L 274 1202 L 274 1206 L 275 1207 L 275 1218 L 272 1226 L 268 1231 L 264 1239 L 262 1256 L 261 1257 L 261 1266 L 260 1267 L 260 1289 L 256 1297 L 251 1302 L 250 1308 L 247 1315 L 242 1320 L 234 1322 L 228 1319 L 227 1313 L 228 1312 L 231 1315 L 240 1316 L 243 1310 L 239 1306 L 234 1306 L 230 1309 L 229 1308 L 234 1298 L 235 1293 L 233 1295 L 232 1294 L 233 1292 L 231 1291 L 223 1314 L 222 1310 L 214 1308 L 215 1303 L 221 1289 L 220 1286 L 217 1291 L 213 1301 L 213 1304 L 211 1307 L 209 1303 L 205 1303 L 204 1302 L 206 1294 L 211 1285 L 211 1283 L 209 1282 L 207 1285 L 202 1299 L 198 1299 L 197 1298 L 199 1297 L 196 1295 L 196 1292 L 198 1286 L 202 1280 L 202 1277 L 200 1277 L 198 1280 L 197 1285 L 195 1287 L 190 1285 L 191 1279 L 194 1274 L 196 1266 L 207 1243 L 218 1206 L 224 1196 L 223 1180 L 226 1173 L 227 1174 L 227 1180 L 228 1178 L 227 1156 L 226 1155 L 226 1146 L 225 1145 L 225 1137 L 224 1136 L 222 1114 L 221 1113 L 215 1071 L 212 1060 L 212 1055 L 208 1039 L 206 1020 L 205 1019 L 205 990 L 206 989 L 206 981 L 207 980 L 207 974 L 208 973 L 210 959 L 217 933 L 217 917 L 216 916 L 217 862 L 216 861 L 216 854 L 215 853 L 214 842 L 212 836 L 212 831 L 210 825 L 208 807 L 206 800 L 203 767 L 202 766 L 202 753 L 201 752 L 201 698 L 202 697 L 203 676 L 204 675 L 206 654 L 207 653 L 207 648 L 208 647 L 208 642 L 211 629 L 211 623 L 212 622 L 212 613 L 213 612 L 213 604 L 214 603 L 216 581 L 221 560 L 223 558 L 226 563 L 234 571 L 243 589 L 244 589 L 236 570 L 227 559 L 223 550 L 223 531 L 224 530 L 224 524 L 227 512 L 227 491 L 226 490 L 224 471 L 214 432 L 214 427 L 211 414 L 209 390 L 210 389 L 213 394 L 224 403 L 237 408 L 247 409 L 248 410 L 270 410 L 271 409 L 276 409 L 284 407 L 298 400 L 306 393 L 305 392 L 298 398 L 288 403 L 272 407 L 250 407 L 230 402 L 223 398 L 213 388 L 206 376 L 197 350 L 196 349 L 193 351 L 205 382 L 209 428 L 186 492 L 182 520 L 176 531 L 175 538 L 168 557 L 152 588 L 130 625 L 130 627 L 128 629 L 116 653 L 114 660 L 113 661 L 112 660 L 109 661 L 108 666 L 110 668 L 110 687 L 109 688 L 108 698 L 102 717 L 95 729 L 91 743 L 83 759 L 78 763 L 75 760 L 76 755 L 80 748 L 85 730 L 89 728 L 92 728 L 92 727 L 87 727 L 82 730 L 76 749 L 66 769 L 60 774 L 58 774 L 56 772 L 57 765 L 64 751 L 71 729 L 79 727 L 78 726 L 69 727 L 62 747 L 53 766 L 51 773 L 46 777 L 44 777 L 41 773 L 42 767 L 57 725 L 58 724 L 65 725 L 63 723 L 58 723 L 57 724 L 54 720 L 51 719 L 55 724 L 49 740 L 48 741 L 46 738 L 42 737 L 42 738 L 48 741 L 43 755 L 42 761 L 37 768 L 35 768 L 32 765 L 33 754 L 37 744 L 38 736 L 42 726 L 42 722 L 44 718 L 48 702 L 49 701 L 52 703 L 64 702 L 73 697 L 81 689 L 82 686 L 73 695 L 66 699 L 60 701 L 53 701 L 52 700 L 55 699 L 55 698 L 50 696 L 32 714 L 25 715 L 22 713 L 28 708 L 28 703 L 39 688 L 45 675 L 67 657 L 73 654 L 78 654 L 75 651 L 75 649 L 88 617 L 92 601 L 94 597 L 108 529 L 110 526 L 114 513 L 122 497 L 127 490 L 134 473 L 142 418 L 147 398 L 147 394 L 150 385 L 150 381 L 152 376 L 152 368 L 151 367 L 151 338 L 152 337 L 152 331 L 153 330 L 155 317 L 159 305 L 164 295 L 169 288 L 177 280 L 184 275 L 197 269 L 205 267 L 217 266 L 277 237 L 282 232 L 283 233 L 283 246 L 284 246 L 285 237 L 286 236 L 286 205 Z
    M 228 899 L 228 906 L 231 910 L 231 919 L 235 926 L 236 926 L 233 917 L 234 910 L 230 904 L 230 898 Z
    M 69 744 L 70 746 L 74 746 Z
    M 54 743 L 55 745 L 60 746 L 60 745 Z
    M 85 740 L 89 742 L 89 740 Z
    M 318 542 L 322 548 L 327 548 L 330 543 L 326 539 L 323 539 Z
    M 321 543 L 325 541 L 328 544 L 326 546 L 323 546 Z
    M 169 490 L 165 493 L 158 503 L 164 498 L 169 492 Z
    M 141 480 L 143 488 L 143 494 L 147 501 L 143 480 Z
    M 237 269 L 237 270 L 243 272 L 257 272 L 257 271 Z
    M 264 271 L 264 272 L 290 271 L 296 273 L 306 280 L 308 280 L 303 274 L 292 269 L 286 268 L 285 269 L 277 269 L 276 270 Z
    M 306 235 L 309 248 L 314 259 Z
    M 334 189 L 335 188 L 338 189 L 337 190 Z
    M 319 188 L 320 187 L 324 187 L 325 188 L 334 187 L 335 188 L 332 190 L 324 190 Z
    M 271 146 L 274 159 L 273 162 L 269 155 L 269 148 Z
    M 262 139 L 263 140 L 262 144 L 261 143 Z
    M 269 138 L 270 137 L 271 139 L 270 140 Z
    M 264 136 L 267 138 L 270 143 L 270 145 L 267 150 L 267 154 L 272 164 L 274 162 L 275 163 L 276 167 L 276 173 L 275 174 L 273 174 L 270 171 L 269 165 L 264 150 L 262 147 L 262 144 L 263 143 L 264 144 L 263 140 Z
    M 261 133 L 264 130 L 266 130 L 269 133 L 270 137 L 269 138 L 265 134 L 262 137 Z
    M 322 51 L 340 52 L 342 54 L 342 163 L 340 164 L 341 165 L 341 171 L 340 172 L 338 170 L 335 170 L 332 173 L 327 174 L 322 170 L 318 170 L 317 173 L 315 171 L 316 163 L 313 166 L 313 171 L 315 174 L 323 173 L 327 176 L 330 176 L 333 174 L 340 174 L 341 173 L 342 174 L 342 188 L 341 189 L 333 185 L 328 187 L 326 186 L 319 186 L 313 189 L 308 189 L 308 191 L 312 192 L 325 192 L 326 193 L 330 192 L 341 192 L 342 193 L 342 221 L 334 224 L 321 224 L 314 222 L 309 219 L 302 212 L 301 213 L 292 205 L 285 195 L 282 187 L 279 168 L 274 154 L 272 128 L 271 127 L 271 117 L 270 116 L 270 98 L 271 97 L 272 87 L 278 74 L 281 70 L 291 61 L 303 55 L 315 52 L 321 52 Z
    M 316 194 L 317 197 L 324 200 L 322 202 L 333 202 L 333 201 L 330 200 L 340 196 L 340 195 L 338 195 L 335 197 L 320 197 Z
    M 291 138 L 293 139 L 291 140 L 291 142 L 292 141 L 301 145 L 306 145 L 314 142 L 314 140 L 311 138 L 313 136 L 307 133 L 300 133 L 293 136 Z
    M 308 142 L 309 141 L 310 142 L 309 143 Z
    M 297 142 L 298 141 L 299 142 L 298 143 Z
    M 309 140 L 310 139 L 313 141 L 310 142 Z
    M 294 141 L 296 139 L 298 140 L 297 142 Z
    M 293 138 L 294 137 L 295 138 L 294 139 Z
    M 310 137 L 311 136 L 312 137 L 311 138 Z
    M 294 137 L 295 136 L 297 137 L 296 138 Z
    M 308 136 L 309 135 L 311 136 L 310 137 Z
    M 296 136 L 297 135 L 299 136 L 298 137 Z
    M 299 135 L 300 134 L 307 134 L 308 135 L 307 136 L 300 136 Z
    M 284 130 L 284 131 L 287 131 L 293 128 L 306 128 L 312 130 L 318 130 L 322 140 L 321 151 L 320 152 L 320 154 L 321 154 L 323 148 L 323 137 L 318 130 L 317 126 L 310 123 L 299 122 L 291 124 Z" fill="#000000" fill-rule="evenodd"/>
</svg>
