<?xml version="1.0" encoding="UTF-8"?>
<svg xmlns="http://www.w3.org/2000/svg" width="728" height="1374" viewBox="0 0 728 1374" role="img" aria-label="Standing Front Back Divider">
  <title>Standing Front Back Divider</title>
  <path d="M 385 18 L 382 18 L 382 69 L 381 70 L 382 103 L 381 104 L 381 531 L 380 532 L 380 899 L 379 900 L 380 918 L 379 919 L 378 1355 L 382 1354 L 384 700 L 399 693 L 400 694 L 401 712 L 402 713 L 402 721 L 403 722 L 403 730 L 404 731 L 406 753 L 407 754 L 410 773 L 412 778 L 412 782 L 417 799 L 417 803 L 420 814 L 420 820 L 421 821 L 423 864 L 424 865 L 424 876 L 425 877 L 425 889 L 426 890 L 427 906 L 428 907 L 428 912 L 431 925 L 439 947 L 438 949 L 437 967 L 435 975 L 435 982 L 434 983 L 434 991 L 433 992 L 432 1022 L 433 1023 L 433 1032 L 434 1033 L 434 1038 L 436 1046 L 444 1068 L 445 1081 L 446 1082 L 446 1088 L 447 1089 L 447 1095 L 449 1103 L 449 1111 L 450 1112 L 451 1132 L 452 1133 L 452 1142 L 453 1143 L 453 1159 L 454 1160 L 454 1166 L 450 1178 L 450 1187 L 452 1192 L 452 1196 L 451 1197 L 451 1215 L 454 1226 L 454 1238 L 455 1239 L 455 1255 L 454 1256 L 454 1267 L 453 1268 L 453 1293 L 455 1301 L 461 1311 L 461 1319 L 465 1329 L 470 1333 L 480 1333 L 487 1326 L 489 1327 L 494 1326 L 499 1320 L 505 1318 L 509 1312 L 515 1309 L 517 1305 L 517 1301 L 522 1296 L 524 1290 L 524 1281 L 516 1260 L 513 1231 L 504 1195 L 506 1180 L 501 1164 L 502 1163 L 503 1137 L 504 1136 L 504 1129 L 505 1128 L 508 1099 L 509 1098 L 510 1087 L 512 1082 L 514 1066 L 515 1065 L 518 1045 L 521 1034 L 522 1018 L 523 1017 L 522 981 L 521 980 L 521 974 L 520 973 L 518 959 L 512 937 L 512 885 L 511 884 L 511 872 L 512 871 L 512 862 L 514 855 L 515 843 L 516 842 L 521 809 L 522 808 L 523 793 L 525 785 L 525 776 L 526 775 L 526 767 L 527 766 L 527 753 L 528 752 L 528 695 L 527 694 L 526 672 L 525 671 L 523 650 L 522 649 L 522 644 L 521 643 L 521 638 L 518 625 L 514 581 L 513 580 L 513 575 L 512 574 L 512 569 L 510 561 L 507 554 L 507 545 L 504 533 L 502 512 L 501 511 L 502 478 L 503 477 L 505 461 L 512 434 L 512 430 L 514 426 L 528 468 L 530 471 L 533 483 L 537 492 L 540 516 L 545 527 L 554 556 L 563 575 L 600 640 L 613 669 L 613 689 L 614 690 L 614 695 L 617 707 L 622 721 L 628 731 L 633 747 L 641 762 L 646 766 L 650 766 L 653 764 L 658 772 L 664 777 L 669 777 L 673 775 L 679 780 L 686 779 L 688 777 L 689 772 L 696 770 L 698 767 L 698 757 L 694 746 L 692 735 L 690 732 L 690 729 L 688 726 L 688 723 L 685 716 L 684 710 L 685 709 L 689 714 L 696 718 L 704 718 L 709 712 L 708 708 L 702 702 L 699 696 L 690 684 L 685 673 L 670 660 L 655 650 L 652 639 L 650 636 L 649 631 L 643 618 L 638 603 L 633 583 L 629 556 L 628 555 L 628 551 L 627 550 L 623 529 L 617 511 L 608 493 L 606 491 L 597 471 L 595 456 L 594 455 L 594 449 L 593 448 L 593 442 L 590 429 L 590 422 L 589 421 L 586 396 L 580 373 L 581 341 L 580 340 L 579 324 L 573 301 L 564 286 L 556 278 L 549 273 L 534 266 L 510 262 L 464 239 L 458 235 L 448 225 L 446 218 L 446 198 L 448 194 L 450 180 L 451 179 L 456 179 L 460 176 L 462 172 L 462 168 L 464 162 L 469 152 L 472 142 L 472 133 L 471 131 L 467 128 L 464 129 L 462 128 L 463 124 L 463 98 L 462 97 L 462 93 L 459 84 L 454 75 L 442 63 L 436 59 L 425 54 L 413 51 L 401 50 L 400 51 L 386 52 L 385 51 Z
    M 493 1314 L 495 1316 L 495 1320 L 493 1322 L 489 1323 L 486 1318 Z
    M 485 1314 L 486 1313 L 488 1314 L 487 1315 Z
    M 464 1314 L 465 1313 L 471 1316 L 482 1315 L 484 1319 L 483 1326 L 477 1330 L 471 1329 L 467 1325 L 465 1321 Z
    M 489 1313 L 490 1312 L 491 1313 L 490 1314 Z
    M 502 1307 L 505 1310 L 505 1312 L 501 1316 L 498 1316 L 496 1312 Z
    M 512 1298 L 514 1303 L 510 1308 L 507 1308 L 505 1305 Z
    M 520 1283 L 521 1284 L 520 1292 L 515 1297 L 514 1294 L 517 1291 L 516 1289 Z
    M 398 54 L 406 54 L 407 55 L 414 55 L 422 57 L 438 65 L 452 79 L 458 92 L 459 104 L 460 105 L 460 118 L 459 119 L 459 129 L 457 136 L 457 143 L 460 136 L 464 132 L 468 133 L 469 140 L 466 151 L 460 163 L 457 174 L 456 175 L 452 175 L 451 174 L 452 162 L 451 162 L 448 170 L 446 186 L 442 200 L 443 223 L 445 228 L 453 236 L 463 243 L 508 265 L 531 269 L 545 275 L 555 282 L 560 287 L 565 294 L 570 304 L 575 324 L 576 339 L 577 340 L 576 373 L 583 401 L 587 435 L 588 436 L 589 448 L 590 449 L 593 470 L 595 474 L 596 480 L 611 507 L 618 525 L 623 545 L 628 578 L 633 599 L 639 618 L 651 648 L 651 650 L 647 652 L 649 654 L 651 653 L 655 654 L 683 676 L 688 688 L 696 698 L 699 703 L 699 705 L 705 710 L 702 711 L 698 708 L 700 711 L 704 713 L 702 715 L 698 715 L 694 713 L 680 698 L 679 692 L 678 692 L 678 702 L 681 711 L 681 715 L 689 738 L 691 749 L 695 760 L 695 764 L 692 768 L 690 768 L 686 764 L 679 743 L 673 730 L 670 720 L 669 720 L 668 723 L 677 749 L 685 768 L 685 774 L 682 777 L 679 776 L 674 770 L 660 737 L 659 732 L 656 726 L 650 723 L 650 725 L 652 725 L 655 728 L 659 743 L 669 764 L 671 771 L 669 773 L 665 773 L 662 771 L 650 749 L 643 728 L 641 726 L 637 725 L 642 730 L 642 735 L 645 745 L 649 754 L 651 756 L 651 761 L 650 762 L 647 762 L 644 760 L 636 745 L 636 743 L 641 741 L 641 740 L 637 740 L 637 742 L 636 743 L 635 742 L 632 731 L 626 721 L 620 704 L 617 691 L 617 680 L 616 679 L 617 668 L 615 665 L 617 663 L 617 661 L 615 663 L 613 661 L 610 652 L 598 628 L 569 578 L 557 553 L 553 542 L 550 529 L 544 517 L 541 493 L 527 451 L 525 448 L 515 415 L 517 409 L 517 404 L 520 394 L 520 390 L 528 359 L 528 354 L 529 353 L 526 352 L 521 374 L 517 386 L 508 435 L 502 457 L 500 472 L 499 473 L 499 479 L 498 480 L 498 491 L 497 492 L 498 519 L 499 520 L 499 526 L 502 538 L 503 553 L 508 568 L 508 573 L 510 580 L 514 624 L 515 625 L 515 631 L 516 632 L 516 637 L 517 638 L 517 643 L 518 644 L 518 649 L 521 662 L 522 678 L 523 679 L 523 692 L 524 693 L 524 715 L 525 716 L 524 754 L 523 755 L 522 778 L 521 779 L 521 786 L 520 787 L 517 815 L 514 827 L 514 832 L 513 833 L 513 838 L 512 839 L 510 856 L 509 857 L 509 864 L 508 865 L 508 936 L 517 974 L 518 990 L 519 991 L 519 1018 L 518 1019 L 518 1027 L 517 1028 L 516 1040 L 510 1066 L 510 1071 L 508 1077 L 508 1082 L 507 1083 L 507 1088 L 504 1101 L 504 1107 L 502 1114 L 500 1138 L 499 1139 L 499 1149 L 498 1150 L 498 1162 L 497 1163 L 502 1179 L 502 1187 L 500 1191 L 499 1199 L 502 1200 L 504 1208 L 504 1212 L 510 1236 L 511 1254 L 518 1275 L 518 1280 L 515 1287 L 513 1288 L 511 1294 L 503 1303 L 494 1308 L 484 1310 L 477 1313 L 469 1312 L 462 1307 L 458 1299 L 457 1290 L 456 1289 L 456 1276 L 457 1275 L 457 1263 L 458 1262 L 458 1235 L 459 1234 L 458 1233 L 459 1231 L 454 1211 L 454 1200 L 458 1185 L 455 1188 L 453 1184 L 454 1176 L 457 1169 L 456 1135 L 455 1134 L 455 1124 L 454 1123 L 454 1115 L 453 1114 L 453 1107 L 452 1106 L 452 1098 L 451 1097 L 450 1084 L 448 1077 L 448 1067 L 440 1047 L 437 1035 L 437 1029 L 436 1028 L 436 1000 L 437 999 L 437 989 L 438 988 L 438 980 L 439 979 L 439 972 L 440 971 L 440 964 L 441 963 L 441 954 L 442 953 L 443 940 L 450 913 L 452 898 L 451 897 L 446 923 L 441 940 L 439 938 L 431 910 L 429 884 L 428 883 L 428 871 L 427 870 L 427 855 L 426 854 L 426 838 L 425 837 L 424 816 L 423 815 L 423 810 L 420 800 L 420 796 L 411 762 L 403 695 L 404 694 L 410 700 L 425 708 L 433 709 L 434 710 L 441 710 L 442 711 L 461 710 L 474 706 L 483 701 L 496 687 L 499 681 L 501 673 L 500 672 L 496 684 L 492 690 L 486 696 L 474 703 L 465 706 L 460 706 L 459 707 L 437 707 L 422 703 L 414 699 L 404 689 L 402 685 L 401 662 L 400 661 L 400 631 L 401 630 L 401 622 L 402 621 L 401 620 L 399 628 L 399 645 L 398 646 L 399 687 L 391 694 L 388 695 L 384 694 L 385 179 L 386 178 L 396 181 L 413 180 L 423 176 L 430 168 L 423 174 L 412 178 L 392 178 L 391 177 L 387 177 L 386 178 L 385 177 L 385 57 Z
    M 483 1186 L 484 1188 L 493 1193 L 491 1185 L 489 1182 L 488 1182 L 489 1185 L 488 1188 Z
    M 464 1177 L 470 1174 L 477 1174 L 481 1176 L 482 1175 L 478 1172 L 470 1172 L 466 1174 Z
    M 490 902 L 492 912 L 497 922 L 498 927 L 501 933 L 502 933 L 502 930 L 493 910 L 492 904 Z
    M 652 746 L 655 746 L 657 744 L 653 744 Z
    M 666 745 L 669 745 L 671 743 L 668 743 Z
    M 685 737 L 682 737 L 679 739 L 680 740 Z
    M 666 708 L 666 712 L 668 714 L 667 708 Z
    M 456 554 L 455 553 L 454 554 L 446 555 L 434 561 L 427 568 L 423 574 L 418 589 L 419 589 L 425 574 L 434 564 L 439 560 L 447 556 L 455 555 Z
    M 399 542 L 397 544 L 398 546 L 402 547 L 404 545 L 404 543 L 400 543 Z
    M 398 522 L 401 525 L 404 523 L 403 521 L 401 522 L 399 521 Z
    M 397 499 L 400 502 L 405 500 L 404 497 L 402 498 L 399 497 Z
    M 551 491 L 552 498 L 559 509 L 561 514 L 564 516 L 559 506 L 560 505 L 566 506 L 570 504 L 573 499 L 567 503 L 560 503 L 559 502 L 557 503 L 553 496 L 553 493 Z
    M 558 505 L 559 504 L 560 505 L 559 506 Z
    M 557 504 L 558 503 L 559 504 L 558 505 Z
    M 580 483 L 579 484 L 579 494 L 581 488 L 581 484 Z
    M 398 479 L 403 480 L 404 478 L 403 477 L 399 477 Z
    M 398 455 L 398 457 L 401 459 L 405 457 L 404 454 L 402 455 L 399 454 Z
    M 399 430 L 400 433 L 404 432 L 403 430 Z
    M 399 411 L 399 414 L 401 415 L 404 413 L 403 411 L 402 412 Z
    M 399 386 L 401 389 L 404 387 L 404 386 Z
    M 432 296 L 429 306 L 429 320 L 430 321 L 431 334 L 437 357 L 441 366 L 450 377 L 458 381 L 465 381 L 455 377 L 445 367 L 440 358 L 435 343 L 433 330 L 432 329 L 432 324 L 431 323 L 430 311 L 431 310 L 431 303 L 433 298 L 433 296 Z
    M 495 281 L 483 290 L 464 301 L 461 305 L 481 294 L 489 288 Z
    M 463 136 L 461 140 L 461 152 L 455 167 L 457 165 L 462 154 L 463 150 Z
    M 343 18 L 342 19 L 342 48 L 341 49 L 339 48 L 332 48 L 331 47 L 315 48 L 298 53 L 286 60 L 277 69 L 270 82 L 268 88 L 268 92 L 267 93 L 267 121 L 268 122 L 268 126 L 267 127 L 263 127 L 258 131 L 257 141 L 268 174 L 273 178 L 276 177 L 278 180 L 280 192 L 283 197 L 283 226 L 276 233 L 270 237 L 226 258 L 224 258 L 215 263 L 198 265 L 182 272 L 176 276 L 164 288 L 156 302 L 149 325 L 149 331 L 147 339 L 148 376 L 146 381 L 146 385 L 139 413 L 131 469 L 128 479 L 112 508 L 105 526 L 105 529 L 100 545 L 94 581 L 89 601 L 85 611 L 85 614 L 74 640 L 71 650 L 57 660 L 42 673 L 34 689 L 28 696 L 25 702 L 19 708 L 18 714 L 23 718 L 31 718 L 39 713 L 40 711 L 41 712 L 39 723 L 34 736 L 34 740 L 28 762 L 30 769 L 32 771 L 37 771 L 39 777 L 42 780 L 48 780 L 54 775 L 58 778 L 63 777 L 67 774 L 73 764 L 76 766 L 80 766 L 86 761 L 91 752 L 91 750 L 93 748 L 97 734 L 105 719 L 111 701 L 112 693 L 113 692 L 114 668 L 128 637 L 162 578 L 173 555 L 179 538 L 180 532 L 186 519 L 189 495 L 193 486 L 200 463 L 202 460 L 202 457 L 207 446 L 209 437 L 211 436 L 221 475 L 221 481 L 223 489 L 223 513 L 222 514 L 221 526 L 219 533 L 220 553 L 216 564 L 213 581 L 212 582 L 209 614 L 208 615 L 208 624 L 207 625 L 207 630 L 206 631 L 206 636 L 205 637 L 205 642 L 202 655 L 200 677 L 199 678 L 199 686 L 198 687 L 198 699 L 197 700 L 197 751 L 198 752 L 199 774 L 200 775 L 200 783 L 201 784 L 204 812 L 205 813 L 206 824 L 210 841 L 212 860 L 213 861 L 213 869 L 214 870 L 213 873 L 213 933 L 206 959 L 205 969 L 203 975 L 202 990 L 201 991 L 201 1016 L 202 1017 L 203 1033 L 209 1059 L 209 1064 L 210 1065 L 210 1070 L 211 1071 L 211 1076 L 212 1077 L 212 1082 L 214 1088 L 217 1112 L 219 1119 L 222 1152 L 223 1153 L 223 1170 L 219 1180 L 219 1186 L 221 1194 L 213 1208 L 206 1235 L 200 1250 L 194 1261 L 191 1272 L 187 1279 L 187 1290 L 189 1294 L 192 1296 L 191 1298 L 192 1302 L 196 1306 L 199 1307 L 204 1314 L 209 1315 L 216 1321 L 221 1321 L 224 1319 L 227 1323 L 231 1325 L 241 1325 L 250 1317 L 253 1309 L 253 1306 L 261 1296 L 264 1286 L 264 1262 L 265 1261 L 267 1241 L 271 1233 L 275 1228 L 279 1218 L 279 1208 L 274 1194 L 275 1178 L 272 1169 L 272 1146 L 273 1145 L 274 1123 L 275 1122 L 276 1106 L 277 1105 L 278 1091 L 279 1090 L 279 1084 L 281 1076 L 281 1069 L 282 1068 L 284 1054 L 289 1038 L 290 1027 L 291 1026 L 292 1002 L 291 1001 L 291 989 L 290 988 L 290 980 L 289 979 L 289 971 L 288 970 L 288 962 L 287 961 L 287 946 L 295 921 L 295 917 L 298 906 L 299 890 L 300 889 L 300 876 L 301 875 L 301 857 L 302 856 L 302 841 L 303 840 L 304 820 L 305 819 L 307 802 L 314 776 L 314 772 L 319 751 L 325 698 L 326 697 L 337 698 L 343 695 L 344 696 L 345 1305 L 346 1306 L 346 1355 L 349 1355 L 348 841 L 347 840 L 346 19 Z
    M 213 1313 L 214 1312 L 216 1314 L 222 1313 L 223 1315 L 221 1317 L 217 1317 Z
    M 227 1311 L 228 1310 L 229 1311 L 228 1312 Z
    M 215 1311 L 217 1309 L 219 1309 L 221 1311 L 219 1313 Z
    M 228 1309 L 229 1308 L 230 1309 L 229 1310 Z
    M 213 1309 L 214 1308 L 215 1310 L 214 1311 Z
    M 230 1312 L 230 1310 L 234 1306 L 240 1308 L 242 1310 L 239 1314 L 235 1314 Z
    M 203 1307 L 206 1304 L 208 1304 L 211 1307 L 211 1309 L 209 1311 L 207 1311 Z
    M 203 1303 L 204 1302 L 205 1303 L 204 1304 Z
    M 197 1302 L 200 1300 L 202 1301 L 200 1303 Z
    M 196 1301 L 197 1300 L 198 1301 L 197 1302 Z
    M 195 1296 L 196 1295 L 197 1296 L 196 1297 Z
    M 192 1287 L 195 1289 L 193 1292 L 191 1290 Z
    M 40 711 L 41 710 L 42 711 L 41 712 Z
    M 22 710 L 23 709 L 24 710 L 23 711 Z
    M 23 709 L 25 707 L 26 708 L 25 710 Z
    M 25 707 L 26 706 L 27 707 L 26 708 Z
    M 110 664 L 111 663 L 112 665 L 111 666 Z
    M 111 662 L 112 661 L 113 663 L 112 664 Z
    M 287 204 L 301 218 L 314 226 L 330 227 L 331 228 L 339 226 L 343 227 L 342 228 L 343 274 L 338 281 L 341 279 L 343 280 L 342 281 L 343 282 L 343 290 L 342 291 L 342 305 L 343 306 L 343 394 L 342 396 L 343 397 L 343 654 L 344 655 L 344 690 L 341 693 L 334 695 L 329 693 L 321 694 L 317 692 L 310 684 L 304 668 L 291 653 L 287 646 L 286 646 L 290 655 L 302 670 L 305 681 L 310 690 L 313 693 L 322 698 L 321 699 L 321 709 L 320 710 L 320 718 L 319 719 L 319 726 L 318 727 L 315 754 L 307 786 L 307 790 L 304 799 L 302 815 L 301 816 L 295 904 L 294 905 L 291 922 L 285 939 L 280 959 L 280 963 L 283 956 L 284 957 L 284 966 L 285 967 L 285 975 L 286 976 L 287 993 L 288 994 L 288 1020 L 287 1021 L 287 1029 L 286 1030 L 285 1040 L 281 1052 L 279 1065 L 278 1066 L 278 1071 L 277 1072 L 275 1093 L 273 1101 L 273 1108 L 272 1109 L 272 1116 L 271 1117 L 270 1137 L 269 1138 L 269 1152 L 268 1153 L 268 1167 L 272 1181 L 272 1185 L 268 1195 L 267 1205 L 269 1204 L 271 1197 L 274 1202 L 274 1206 L 275 1207 L 275 1218 L 272 1226 L 268 1231 L 264 1239 L 262 1256 L 261 1257 L 261 1266 L 260 1267 L 260 1289 L 256 1297 L 251 1302 L 250 1308 L 247 1315 L 242 1320 L 234 1322 L 228 1319 L 227 1313 L 228 1312 L 231 1315 L 240 1316 L 243 1310 L 239 1306 L 234 1306 L 230 1309 L 229 1308 L 234 1298 L 235 1293 L 233 1295 L 232 1294 L 233 1292 L 231 1291 L 223 1314 L 222 1310 L 214 1308 L 215 1303 L 221 1289 L 220 1286 L 217 1291 L 213 1301 L 213 1304 L 211 1307 L 209 1303 L 205 1303 L 204 1302 L 206 1294 L 211 1285 L 211 1283 L 209 1282 L 207 1285 L 202 1299 L 198 1299 L 197 1298 L 199 1297 L 196 1295 L 196 1292 L 198 1286 L 202 1280 L 202 1277 L 200 1277 L 198 1280 L 197 1285 L 195 1287 L 190 1285 L 191 1279 L 194 1274 L 196 1266 L 207 1243 L 218 1206 L 224 1196 L 223 1180 L 226 1173 L 227 1174 L 227 1180 L 228 1178 L 227 1156 L 226 1155 L 226 1146 L 225 1145 L 225 1137 L 224 1136 L 222 1114 L 221 1113 L 215 1071 L 212 1060 L 212 1055 L 208 1039 L 206 1020 L 205 1019 L 205 990 L 206 989 L 206 981 L 207 980 L 207 974 L 208 973 L 210 959 L 217 933 L 217 917 L 216 916 L 217 862 L 216 861 L 216 854 L 215 853 L 214 842 L 212 836 L 212 831 L 210 825 L 208 807 L 206 800 L 203 767 L 202 766 L 202 753 L 201 752 L 201 698 L 202 697 L 203 676 L 204 675 L 206 654 L 207 653 L 207 648 L 208 647 L 208 642 L 211 629 L 211 623 L 212 622 L 212 613 L 213 612 L 213 604 L 214 603 L 216 581 L 221 560 L 223 558 L 226 563 L 234 571 L 243 589 L 244 589 L 236 570 L 227 559 L 223 550 L 223 531 L 224 530 L 224 524 L 227 512 L 227 491 L 226 490 L 224 471 L 214 432 L 214 427 L 211 414 L 209 390 L 210 389 L 213 394 L 224 403 L 237 408 L 247 409 L 248 410 L 270 410 L 271 409 L 276 409 L 284 407 L 298 400 L 306 393 L 305 392 L 298 398 L 288 403 L 272 407 L 250 407 L 230 402 L 223 398 L 213 388 L 206 376 L 197 350 L 196 349 L 193 351 L 205 382 L 209 428 L 186 492 L 182 520 L 176 531 L 175 538 L 168 557 L 152 588 L 130 625 L 130 627 L 128 629 L 116 653 L 114 660 L 113 661 L 112 660 L 109 661 L 108 666 L 110 668 L 110 687 L 109 688 L 108 698 L 102 717 L 95 729 L 91 743 L 83 759 L 78 763 L 75 760 L 76 755 L 80 748 L 85 730 L 89 728 L 92 728 L 92 727 L 87 727 L 82 730 L 76 749 L 66 769 L 60 774 L 58 774 L 56 772 L 57 765 L 64 751 L 71 729 L 79 727 L 78 726 L 69 727 L 62 747 L 53 766 L 51 773 L 46 777 L 44 777 L 41 773 L 42 767 L 57 725 L 58 724 L 65 725 L 63 723 L 58 723 L 57 724 L 54 720 L 51 719 L 55 724 L 49 740 L 48 741 L 46 738 L 42 737 L 42 738 L 48 741 L 43 755 L 42 761 L 37 768 L 35 768 L 32 765 L 33 754 L 37 744 L 38 736 L 42 726 L 42 722 L 44 718 L 48 702 L 49 701 L 52 703 L 64 702 L 73 697 L 81 689 L 82 686 L 73 695 L 66 699 L 60 701 L 53 701 L 52 700 L 55 699 L 55 698 L 50 696 L 32 714 L 25 715 L 22 713 L 28 708 L 28 703 L 39 688 L 45 675 L 67 657 L 73 654 L 78 654 L 75 651 L 75 649 L 88 617 L 92 601 L 94 597 L 108 529 L 110 526 L 114 513 L 122 497 L 127 490 L 134 473 L 142 418 L 147 398 L 147 394 L 150 385 L 150 381 L 152 376 L 152 368 L 151 367 L 151 338 L 152 337 L 152 331 L 153 330 L 155 317 L 159 305 L 164 295 L 169 288 L 177 280 L 184 275 L 197 269 L 205 267 L 217 266 L 277 237 L 282 232 L 283 233 L 283 246 L 284 246 L 285 237 L 286 236 L 286 205 Z
    M 228 899 L 228 906 L 231 910 L 231 919 L 235 926 L 236 926 L 233 917 L 234 910 L 230 904 L 230 898 Z
    M 278 896 L 276 897 L 271 906 L 271 909 L 269 912 L 268 921 L 262 928 L 255 933 L 258 933 L 262 931 L 269 924 L 271 920 L 271 914 L 277 901 Z
    M 69 744 L 70 746 L 74 746 Z
    M 54 743 L 55 745 L 60 746 L 60 745 Z
    M 85 740 L 89 742 L 89 740 Z
    M 318 542 L 322 548 L 327 548 L 330 543 L 326 539 L 323 539 Z
    M 321 543 L 325 541 L 328 544 L 326 546 L 323 546 Z
    M 169 490 L 165 493 L 158 503 L 164 498 L 169 492 Z
    M 141 480 L 143 488 L 143 494 L 147 501 L 143 480 Z
    M 241 381 L 241 385 L 244 388 L 249 389 L 252 388 L 255 385 L 255 381 L 253 379 L 252 379 L 253 381 L 252 385 L 251 382 L 249 383 L 246 382 L 244 385 L 243 384 L 243 382 L 245 380 L 250 378 L 249 377 L 246 377 Z
    M 248 386 L 249 385 L 251 386 L 250 387 Z
    M 250 385 L 251 384 L 252 385 L 251 386 Z
    M 244 385 L 245 384 L 246 385 L 245 386 Z
    M 237 269 L 237 270 L 243 272 L 257 272 L 257 271 Z
    M 264 271 L 264 272 L 290 271 L 296 273 L 306 280 L 308 280 L 303 274 L 292 269 L 286 268 L 285 269 L 277 269 L 276 270 Z
    M 306 235 L 309 248 L 314 259 Z
    M 334 189 L 335 188 L 338 189 L 337 190 Z
    M 319 188 L 320 187 L 324 187 L 325 188 L 334 187 L 335 188 L 332 190 L 324 190 Z
    M 271 146 L 274 159 L 273 162 L 269 155 L 269 148 Z
    M 262 139 L 263 140 L 262 144 L 261 143 Z
    M 269 138 L 270 137 L 271 139 L 270 140 Z
    M 264 136 L 267 138 L 270 143 L 270 145 L 267 150 L 267 154 L 272 164 L 274 162 L 275 163 L 276 167 L 276 173 L 275 174 L 273 174 L 270 171 L 269 165 L 264 150 L 262 147 L 262 144 L 263 143 L 264 144 L 263 140 Z
    M 261 133 L 264 130 L 266 130 L 269 133 L 270 137 L 269 138 L 265 134 L 262 137 Z
    M 322 51 L 340 52 L 342 54 L 342 163 L 340 164 L 341 165 L 341 171 L 340 172 L 338 170 L 335 170 L 332 173 L 327 174 L 322 170 L 318 170 L 317 173 L 315 171 L 316 163 L 313 166 L 313 171 L 315 174 L 323 173 L 327 176 L 330 176 L 333 174 L 340 174 L 341 173 L 342 174 L 342 188 L 341 189 L 333 185 L 328 187 L 326 186 L 319 186 L 313 189 L 308 189 L 308 191 L 312 192 L 325 192 L 326 193 L 330 192 L 341 192 L 342 193 L 342 221 L 334 224 L 321 224 L 314 222 L 309 219 L 302 212 L 301 213 L 292 205 L 285 195 L 282 187 L 279 168 L 274 154 L 272 128 L 271 127 L 271 117 L 270 116 L 270 98 L 271 97 L 272 87 L 278 74 L 281 70 L 291 61 L 303 55 L 315 52 L 321 52 Z
    M 316 194 L 317 197 L 324 200 L 322 202 L 333 202 L 333 201 L 330 200 L 340 196 L 340 195 L 338 195 L 335 197 L 320 197 Z
    M 291 138 L 293 139 L 291 140 L 291 142 L 292 141 L 301 145 L 306 145 L 314 142 L 314 140 L 311 138 L 313 136 L 307 133 L 300 133 L 293 136 Z
    M 308 142 L 309 141 L 310 142 L 309 143 Z
    M 297 142 L 298 141 L 299 142 L 298 143 Z
    M 309 140 L 310 139 L 313 141 L 310 142 Z
    M 294 141 L 296 139 L 298 140 L 297 142 Z
    M 293 138 L 294 137 L 295 138 L 294 139 Z
    M 310 137 L 311 136 L 312 137 L 311 138 Z
    M 294 137 L 295 136 L 297 137 L 296 138 Z
    M 308 136 L 309 135 L 311 136 L 310 137 Z
    M 296 136 L 297 135 L 299 136 L 298 137 Z
    M 299 135 L 300 134 L 307 134 L 308 135 L 307 136 L 300 136 Z
    M 284 130 L 284 131 L 287 131 L 293 128 L 306 128 L 312 130 L 318 130 L 322 140 L 321 151 L 320 152 L 320 154 L 321 154 L 323 148 L 323 137 L 318 130 L 317 126 L 310 123 L 299 122 L 291 124 Z" fill="#000000" fill-rule="evenodd"/>
</svg>
