<?xml version="1.0" encoding="UTF-8"?>
<svg xmlns="http://www.w3.org/2000/svg" width="516" height="952" viewBox="0 0 516 952" role="img" aria-label="Standing Back View">
  <title>Standing Back View</title>
  <path d="M 252 18 L 241 21 L 230 27 L 221 36 L 214 51 L 214 57 L 213 58 L 214 80 L 211 81 L 208 85 L 208 94 L 215 112 L 220 115 L 223 126 L 227 133 L 227 149 L 221 156 L 214 161 L 199 168 L 197 168 L 182 177 L 163 181 L 157 184 L 145 195 L 139 204 L 135 213 L 131 227 L 131 234 L 130 235 L 131 259 L 123 282 L 118 325 L 110 354 L 103 364 L 96 377 L 91 391 L 85 417 L 80 432 L 70 452 L 63 463 L 58 468 L 45 474 L 35 483 L 22 505 L 21 510 L 18 515 L 19 519 L 22 521 L 28 521 L 29 523 L 27 525 L 19 543 L 21 547 L 26 549 L 25 551 L 26 553 L 30 556 L 33 556 L 37 553 L 42 556 L 46 556 L 52 551 L 55 553 L 59 553 L 69 544 L 75 531 L 86 514 L 94 485 L 96 483 L 104 467 L 128 432 L 142 406 L 148 389 L 155 377 L 159 360 L 166 341 L 167 334 L 176 310 L 180 322 L 181 335 L 182 336 L 182 368 L 181 369 L 180 378 L 172 400 L 170 412 L 168 417 L 168 423 L 167 424 L 166 443 L 165 444 L 165 453 L 163 461 L 162 483 L 161 484 L 160 540 L 161 541 L 161 565 L 162 566 L 163 586 L 164 587 L 165 600 L 166 601 L 166 606 L 167 607 L 169 623 L 171 629 L 171 635 L 172 636 L 172 669 L 173 670 L 173 681 L 172 682 L 172 687 L 170 692 L 170 696 L 166 712 L 166 718 L 165 719 L 164 739 L 165 740 L 165 752 L 166 753 L 167 770 L 168 771 L 169 783 L 171 789 L 171 794 L 172 795 L 172 800 L 173 801 L 173 806 L 175 812 L 178 836 L 179 837 L 180 862 L 175 875 L 176 889 L 172 897 L 163 905 L 162 907 L 162 916 L 167 922 L 175 924 L 181 930 L 188 933 L 204 933 L 208 931 L 212 927 L 216 917 L 215 897 L 216 896 L 216 892 L 222 881 L 222 872 L 218 862 L 219 827 L 220 826 L 220 818 L 221 817 L 221 809 L 222 808 L 224 786 L 230 762 L 231 746 L 232 745 L 231 723 L 230 722 L 229 706 L 228 705 L 228 694 L 229 693 L 230 682 L 235 669 L 236 661 L 237 660 L 239 633 L 240 632 L 242 608 L 243 607 L 243 601 L 246 588 L 246 582 L 247 581 L 251 557 L 253 552 L 253 548 L 255 543 L 258 524 L 260 519 L 261 520 L 261 528 L 262 529 L 262 535 L 263 536 L 266 555 L 269 564 L 269 568 L 274 585 L 274 589 L 278 605 L 280 623 L 281 624 L 281 631 L 282 632 L 284 657 L 285 658 L 286 666 L 291 678 L 294 689 L 293 718 L 292 719 L 292 728 L 291 729 L 291 747 L 292 748 L 293 761 L 297 775 L 300 796 L 301 797 L 302 812 L 304 820 L 304 829 L 305 830 L 305 838 L 306 839 L 306 863 L 303 870 L 302 878 L 308 892 L 308 919 L 312 928 L 317 932 L 320 933 L 335 933 L 342 930 L 348 924 L 356 922 L 361 917 L 362 914 L 362 908 L 360 904 L 352 897 L 347 887 L 349 882 L 349 875 L 344 863 L 345 833 L 346 832 L 350 800 L 351 799 L 351 794 L 354 781 L 356 760 L 357 759 L 357 751 L 358 750 L 357 713 L 356 712 L 356 707 L 352 693 L 352 689 L 350 684 L 350 677 L 349 676 L 350 675 L 350 629 L 351 628 L 353 608 L 354 607 L 355 595 L 356 594 L 357 576 L 358 575 L 360 525 L 359 524 L 359 502 L 358 501 L 357 477 L 356 476 L 355 463 L 354 462 L 354 457 L 353 456 L 351 440 L 350 439 L 350 427 L 347 416 L 346 405 L 337 378 L 336 367 L 335 366 L 336 328 L 337 327 L 338 313 L 341 300 L 343 302 L 350 325 L 355 337 L 355 340 L 363 363 L 366 377 L 373 390 L 374 395 L 382 413 L 418 473 L 418 475 L 423 484 L 424 496 L 427 509 L 431 518 L 438 528 L 438 530 L 445 543 L 454 550 L 459 550 L 462 547 L 470 553 L 475 553 L 478 551 L 484 553 L 488 551 L 489 546 L 493 545 L 496 541 L 495 534 L 488 521 L 494 519 L 497 516 L 497 512 L 494 507 L 492 499 L 485 489 L 481 480 L 473 473 L 462 468 L 455 463 L 447 449 L 447 447 L 440 432 L 434 412 L 434 408 L 432 403 L 428 382 L 418 361 L 414 356 L 410 348 L 406 333 L 403 300 L 402 299 L 402 291 L 399 278 L 391 256 L 392 252 L 392 232 L 391 231 L 391 225 L 386 209 L 378 196 L 367 185 L 357 180 L 349 178 L 344 178 L 331 170 L 311 163 L 302 158 L 295 152 L 292 145 L 292 134 L 297 126 L 299 116 L 306 110 L 308 102 L 312 93 L 312 85 L 309 81 L 306 80 L 307 77 L 307 56 L 306 55 L 305 46 L 297 33 L 287 25 L 273 19 L 269 19 L 268 18 Z
    M 41 550 L 42 549 L 45 550 L 46 552 L 43 553 Z
    M 29 550 L 30 549 L 33 552 L 31 553 Z
    M 471 549 L 473 547 L 475 548 L 474 550 Z
    M 55 549 L 57 547 L 59 549 L 58 550 Z
    M 485 545 L 486 548 L 482 549 L 481 548 Z
    M 456 542 L 458 544 L 457 547 L 455 547 L 453 545 Z
    M 23 544 L 24 540 L 26 540 L 28 542 L 25 545 Z
    M 488 539 L 491 537 L 493 540 L 490 542 Z
    M 28 521 L 29 520 L 30 521 L 29 522 Z
    M 487 520 L 488 519 L 489 520 L 488 521 Z
    M 253 21 L 271 22 L 287 29 L 295 36 L 302 49 L 303 59 L 304 60 L 304 71 L 303 72 L 302 88 L 303 89 L 305 85 L 307 84 L 309 87 L 309 91 L 303 108 L 301 110 L 300 109 L 300 105 L 298 107 L 297 115 L 293 127 L 292 128 L 291 126 L 289 127 L 289 146 L 290 147 L 290 151 L 299 160 L 312 167 L 325 171 L 340 180 L 352 182 L 362 186 L 374 196 L 379 203 L 384 213 L 388 226 L 388 233 L 389 234 L 388 258 L 391 264 L 397 283 L 398 293 L 399 294 L 399 301 L 400 302 L 402 329 L 407 347 L 407 351 L 417 366 L 423 378 L 427 391 L 431 414 L 433 418 L 437 434 L 451 463 L 456 468 L 470 475 L 478 482 L 483 492 L 487 497 L 494 513 L 494 515 L 493 516 L 491 515 L 492 516 L 490 517 L 484 512 L 482 505 L 477 497 L 477 492 L 475 490 L 474 491 L 475 501 L 478 507 L 479 512 L 492 535 L 486 538 L 477 526 L 472 516 L 469 513 L 468 516 L 472 525 L 485 544 L 478 546 L 469 536 L 462 523 L 457 518 L 456 519 L 458 521 L 465 536 L 472 544 L 472 546 L 470 548 L 468 548 L 457 537 L 451 525 L 446 521 L 445 522 L 448 524 L 449 531 L 456 542 L 451 544 L 445 537 L 440 525 L 431 510 L 428 500 L 426 483 L 421 474 L 421 472 L 410 452 L 389 419 L 369 376 L 364 355 L 361 349 L 361 346 L 343 292 L 343 283 L 344 282 L 345 273 L 349 260 L 352 255 L 350 252 L 343 270 L 343 274 L 339 290 L 339 295 L 336 305 L 336 311 L 335 312 L 335 318 L 333 326 L 333 336 L 332 337 L 332 371 L 341 398 L 342 406 L 344 411 L 344 420 L 347 429 L 348 446 L 349 447 L 349 452 L 350 453 L 352 469 L 353 470 L 353 476 L 354 477 L 355 501 L 356 502 L 356 524 L 357 525 L 356 563 L 355 564 L 354 586 L 353 587 L 353 593 L 352 594 L 351 606 L 350 607 L 349 619 L 348 620 L 348 627 L 347 628 L 347 684 L 349 689 L 350 698 L 354 713 L 354 719 L 355 720 L 355 751 L 354 752 L 353 768 L 352 769 L 352 774 L 351 775 L 351 780 L 350 781 L 350 786 L 349 787 L 349 792 L 346 805 L 346 811 L 344 818 L 343 831 L 342 832 L 341 864 L 346 877 L 344 890 L 350 900 L 358 907 L 359 913 L 357 917 L 352 920 L 350 919 L 350 916 L 349 916 L 342 926 L 332 930 L 322 930 L 317 928 L 314 925 L 311 917 L 312 896 L 311 895 L 310 887 L 306 880 L 306 871 L 309 865 L 309 861 L 310 860 L 309 835 L 308 834 L 308 826 L 307 825 L 307 816 L 306 815 L 306 808 L 304 800 L 304 793 L 299 773 L 298 764 L 296 759 L 295 743 L 294 742 L 295 717 L 296 716 L 296 708 L 297 707 L 297 689 L 296 688 L 296 683 L 292 674 L 287 656 L 283 616 L 279 599 L 278 589 L 273 572 L 273 568 L 266 540 L 264 522 L 263 521 L 262 501 L 263 500 L 274 507 L 282 509 L 302 509 L 303 508 L 311 507 L 311 506 L 286 507 L 272 503 L 267 500 L 264 497 L 261 489 L 261 458 L 258 461 L 258 491 L 256 496 L 251 501 L 235 507 L 215 507 L 214 506 L 210 506 L 212 508 L 216 508 L 217 509 L 232 510 L 248 506 L 257 499 L 258 500 L 256 522 L 255 523 L 252 542 L 249 551 L 249 555 L 247 560 L 247 564 L 243 580 L 243 585 L 242 586 L 242 591 L 241 592 L 238 620 L 237 621 L 237 628 L 236 629 L 236 640 L 235 641 L 234 658 L 225 689 L 225 708 L 226 709 L 226 718 L 227 719 L 227 726 L 228 727 L 228 753 L 227 754 L 224 774 L 222 779 L 220 798 L 219 799 L 219 806 L 218 807 L 218 814 L 217 815 L 217 822 L 216 823 L 214 857 L 215 858 L 215 864 L 219 873 L 219 879 L 213 890 L 213 895 L 212 896 L 213 915 L 212 916 L 212 920 L 210 924 L 205 929 L 202 930 L 190 930 L 183 927 L 177 921 L 176 918 L 171 920 L 165 915 L 166 907 L 174 900 L 178 892 L 181 890 L 178 881 L 178 877 L 183 865 L 183 841 L 182 840 L 180 820 L 178 814 L 177 803 L 176 802 L 172 774 L 171 773 L 170 759 L 169 758 L 168 724 L 169 723 L 170 708 L 175 690 L 176 680 L 177 677 L 181 673 L 184 662 L 183 661 L 181 669 L 178 674 L 176 672 L 176 661 L 175 660 L 175 632 L 174 631 L 173 620 L 172 619 L 169 598 L 168 597 L 167 583 L 166 582 L 166 572 L 165 571 L 165 560 L 164 559 L 164 492 L 165 491 L 166 464 L 167 463 L 169 438 L 170 437 L 170 426 L 171 425 L 171 420 L 172 419 L 176 398 L 184 377 L 185 360 L 186 359 L 186 348 L 185 347 L 184 324 L 180 311 L 172 265 L 168 254 L 164 247 L 162 247 L 162 249 L 169 266 L 175 303 L 164 333 L 164 336 L 156 358 L 153 373 L 145 388 L 141 400 L 129 424 L 97 472 L 90 486 L 86 504 L 79 520 L 71 531 L 67 541 L 63 546 L 60 547 L 57 545 L 61 541 L 68 525 L 64 528 L 58 539 L 48 550 L 44 549 L 43 547 L 51 537 L 52 533 L 59 521 L 56 522 L 48 536 L 37 549 L 35 547 L 32 549 L 30 547 L 39 535 L 48 517 L 46 517 L 44 519 L 39 528 L 29 541 L 24 538 L 37 514 L 39 507 L 42 502 L 43 493 L 41 494 L 39 501 L 34 506 L 31 514 L 25 519 L 22 517 L 23 514 L 25 515 L 24 510 L 27 502 L 39 483 L 46 477 L 59 471 L 65 466 L 75 450 L 84 431 L 97 383 L 114 352 L 114 349 L 117 342 L 121 325 L 121 320 L 122 319 L 122 312 L 123 311 L 123 303 L 124 302 L 124 294 L 125 293 L 126 282 L 131 266 L 134 260 L 134 249 L 133 248 L 134 229 L 135 228 L 136 220 L 143 204 L 147 198 L 160 186 L 171 182 L 181 181 L 190 175 L 215 164 L 225 157 L 230 151 L 230 124 L 229 124 L 228 127 L 225 122 L 222 107 L 220 105 L 220 110 L 219 111 L 217 109 L 212 97 L 211 86 L 213 83 L 217 89 L 218 88 L 217 74 L 216 73 L 216 61 L 217 60 L 218 49 L 221 42 L 225 36 L 233 29 L 240 25 Z
    M 315 879 L 314 879 L 313 883 L 313 891 L 314 891 L 315 888 L 315 882 L 316 881 Z
    M 208 879 L 208 888 L 209 892 L 210 892 L 210 882 L 209 879 Z
    M 334 877 L 336 888 L 338 889 L 335 877 Z
    M 190 874 L 188 879 L 188 883 L 190 881 Z
    M 211 668 L 213 676 L 214 674 Z
    M 202 666 L 201 665 L 197 665 L 193 668 L 191 671 L 191 674 L 192 674 L 193 671 L 197 667 Z
    M 311 663 L 309 664 L 307 675 L 309 675 Z
    M 328 662 L 331 672 L 333 674 L 334 673 L 330 663 Z
    M 341 477 L 337 487 L 330 495 L 332 495 L 339 486 L 342 478 Z
    M 177 475 L 177 478 L 181 487 L 191 497 L 192 496 L 183 487 L 178 477 L 178 475 Z
    M 149 365 L 141 378 L 148 371 Z
    M 216 99 L 218 104 L 219 103 L 218 99 Z" fill="#000000" fill-rule="evenodd"/>
</svg>
